{"glyphs":{"0":{"ha":868,"x_min":57,"x_max":819,"o":"m 439 997 q 593 965 522 997 q 714 872 664 933 q 791 731 763 813 q 819 547 819 649 l 819 426 q 790 251 819 331 q 710 111 761 171 q 589 19 658 50 q 439 -12 519 -12 q 290 21 360 -12 q 167 117 219 54 q 87 256 117 176 q 57 426 57 335 l 57 547 q 85 730 57 647 q 161 871 113 813 q 283 965 211 933 q 439 997 354 997 m 607 540 q 554 746 607 674 q 436 806 511 806 q 318 746 361 806 q 265 540 265 674 l 265 436 q 279 328 265 378 q 321 243 293 279 q 436 178 368 178 q 506 197 475 178 q 560 249 538 215 q 594 331 582 283 q 607 436 607 378 l 607 540 z "},"1":{"ha":510,"x_min":83,"x_max":411,"o":"m 83 985 l 411 985 l 411 0 l 200 0 l 200 793 l 83 793 l 83 985 z "},"2":{"ha":779,"x_min":68,"x_max":713,"o":"m 397 999 q 520 974 463 999 q 620 907 578 949 q 688 809 663 865 q 713 690 713 753 q 690 582 713 639 q 621 472 668 525 l 374 190 l 707 190 l 707 0 l 68 0 l 68 136 q 253 354 169 257 q 322 437 288 396 q 384 512 356 478 q 432 569 413 546 q 456 599 451 592 q 486 647 475 625 q 497 693 497 669 q 464 778 497 749 q 382 808 431 808 q 337 799 358 808 q 299 772 315 789 q 274 734 283 756 q 265 690 265 713 l 82 690 q 107 809 82 753 q 174 907 132 865 q 274 974 217 949 q 397 999 332 999 z "},"3":{"ha":764,"x_min":51,"x_max":713,"o":"m 569 608 q 675 485 638 560 q 713 325 713 411 q 685 192 713 254 q 613 83 658 131 q 505 9 567 36 q 372 -18 443 -18 q 267 -1 317 -18 q 174 47 217 17 q 101 120 132 78 q 51 213 69 163 l 235 290 q 283 208 246 242 q 368 174 319 174 q 421 185 396 174 q 465 217 446 197 q 494 265 483 238 q 504 321 504 292 q 494 378 504 351 q 465 426 483 406 q 420 458 446 446 q 363 469 394 469 q 294 450 324 469 l 190 582 l 354 793 l 103 793 l 103 985 l 615 985 l 615 889 l 454 656 q 569 608 519 643 z "},"4":{"ha":950,"x_min":67,"x_max":883,"o":"m 733 342 l 883 342 l 883 158 l 733 158 l 733 0 l 522 0 l 522 160 l 156 160 l 67 274 l 571 985 l 733 985 l 733 342 m 522 633 l 490 574 l 346 364 l 322 342 l 522 342 l 522 583 l 522 633 z "},"5":{"ha":779,"x_min":51,"x_max":713,"o":"m 569 608 q 676 488 640 564 q 713 325 713 411 q 685 192 713 254 q 613 83 658 131 q 505 9 567 36 q 372 -18 443 -18 q 266 -1 317 -18 q 174 47 215 17 q 100 120 132 78 q 51 213 68 163 l 233 290 q 281 208 244 242 q 367 174 318 174 q 419 185 394 174 q 463 217 444 197 q 492 265 482 238 q 503 321 503 292 q 461 429 503 388 q 363 471 419 471 q 296 458 329 471 q 231 426 263 446 l 100 522 l 150 985 l 633 985 l 633 793 l 319 793 l 306 626 q 359 643 332 638 q 414 649 386 649 q 501 637 460 649 q 569 608 542 625 z "},"6":{"ha":814,"x_min":67,"x_max":747,"o":"m 604 608 q 709 485 671 560 q 747 325 747 411 q 720 192 747 254 q 647 83 693 131 q 540 9 601 36 q 407 -18 478 -18 q 274 9 336 -18 q 167 83 213 36 q 94 192 121 131 q 67 325 67 254 q 82 419 67 374 q 119 507 97 464 q 133 534 121 511 q 164 591 146 557 q 204 667 182 625 q 250 754 226 710 q 374 985 306 857 l 611 985 l 432 660 q 524 646 481 660 q 604 608 568 632 m 401 174 q 454 185 429 174 q 498 217 479 197 q 527 265 517 238 q 538 321 538 292 q 499 426 538 383 q 396 469 461 469 q 346 460 371 469 q 301 426 321 450 l 299 421 q 276 367 286 394 q 265 321 265 339 q 276 265 265 292 q 305 217 286 238 q 349 185 324 197 q 401 174 374 174 z "},"7":{"ha":746,"x_min":50,"x_max":697,"o":"m 50 985 l 697 985 l 697 885 l 325 0 l 97 0 l 431 793 l 50 793 l 50 985 z "},"8":{"ha":796,"x_min":53,"x_max":740,"o":"m 600 542 q 655 499 629 525 q 699 440 681 472 q 729 372 718 408 q 740 300 740 336 q 713 178 740 236 q 638 77 685 121 q 528 8 590 33 q 396 -18 465 -18 q 264 8 326 -18 q 155 77 201 33 q 81 178 108 121 q 53 300 53 236 q 89 438 53 372 q 193 542 125 504 q 120 623 143 578 q 97 721 97 668 q 121 827 97 776 q 185 916 144 878 q 281 976 226 954 q 396 999 335 999 q 512 976 457 999 q 608 916 567 954 q 672 827 649 878 q 696 721 696 776 q 670 623 696 668 q 600 542 644 578 m 397 806 q 325 774 354 806 q 296 703 296 743 q 310 651 296 675 q 351 615 325 628 q 397 606 375 606 q 421 608 410 606 q 443 615 432 611 q 483 651 468 628 q 497 703 497 675 q 469 774 497 743 q 397 806 440 806 m 397 178 q 449 190 425 178 q 491 221 474 201 q 519 265 508 240 q 529 318 529 290 q 506 394 529 361 q 447 442 483 426 q 397 451 426 451 q 347 442 368 451 q 288 394 311 426 q 265 318 265 361 q 276 265 265 290 q 303 221 286 240 q 345 190 321 201 q 397 178 369 178 z "},"9":{"ha":786,"x_min":51,"x_max":732,"o":"m 390 999 q 523 972 461 999 q 631 899 585 944 q 705 791 678 853 q 732 658 732 729 q 717 565 732 610 q 679 476 701 521 q 665 449 676 472 q 634 392 653 426 q 592 315 615 358 q 546 229 569 272 q 422 0 490 126 l 186 0 l 367 324 q 236 353 294 325 q 137 428 178 382 q 74 535 96 475 q 51 658 51 594 q 78 791 51 729 q 150 899 104 853 q 258 972 196 944 q 390 999 319 999 m 500 564 q 523 617 513 589 q 533 663 533 644 q 523 719 533 693 q 494 766 513 746 q 450 798 475 786 q 397 810 425 810 q 344 798 369 810 q 301 766 319 786 q 272 719 282 746 q 261 663 261 693 q 298 558 261 603 q 400 514 335 514 q 452 524 426 514 q 497 558 478 535 l 500 564 z "},"b":{"ha":821,"x_min":64,"x_max":801,"o":"m 461 708 q 596 680 533 708 q 704 602 658 651 q 776 487 750 553 q 801 346 801 421 q 776 205 801 271 q 704 90 750 139 q 596 12 658 40 q 461 -17 533 -17 q 344 5 400 -17 q 256 60 288 26 l 228 0 l 64 0 l 64 1014 l 256 1014 l 256 633 q 461 708 335 708 m 435 154 q 505 169 472 154 q 563 210 538 185 q 601 271 588 236 q 615 346 615 306 q 601 420 615 385 q 563 481 588 456 q 505 522 538 507 q 435 538 472 538 q 365 527 397 538 q 308 494 332 517 q 269 434 283 471 q 256 343 256 397 q 269 259 256 294 q 308 201 283 224 q 365 166 332 178 q 435 154 397 154 z "},"c":{"ha":715,"x_min":42,"x_max":681,"o":"m 401 538 q 336 522 367 538 q 283 478 306 506 q 247 415 260 451 q 233 338 233 379 q 247 262 233 296 q 283 203 260 228 q 336 165 306 179 q 401 151 367 151 q 485 172 444 151 q 556 228 526 192 l 674 111 q 554 18 625 53 q 401 -17 483 -17 q 261 12 326 -17 q 147 90 196 40 q 70 205 99 139 q 42 346 42 271 q 70 487 42 421 q 147 602 99 553 q 261 680 196 651 q 401 708 326 708 q 558 672 486 708 q 681 574 631 636 l 547 471 q 474 523 507 508 q 401 538 442 538 z "},"d":{"ha":819,"x_min":19,"x_max":757,"o":"m 757 1014 l 757 0 l 593 0 l 565 60 q 477 5 533 26 q 360 -17 421 -17 q 224 12 286 -17 q 116 90 161 40 q 45 205 71 139 q 19 346 19 271 q 45 487 19 421 q 116 602 71 553 q 224 680 161 651 q 360 708 286 708 q 476 693 425 708 q 565 642 526 678 l 565 1014 l 757 1014 m 565 343 q 551 434 565 397 q 513 494 538 471 q 455 527 488 517 q 385 538 422 538 q 315 522 347 538 q 258 481 282 507 q 219 420 233 456 q 206 346 206 385 q 219 271 206 306 q 258 210 233 236 q 315 169 282 185 q 385 154 347 154 q 512 201 460 154 q 565 343 564 247 z "},"e":{"ha":826,"x_min":43,"x_max":750,"o":"m 403 708 q 544 677 481 708 q 654 595 608 646 q 725 478 700 544 q 750 343 750 413 q 739 254 750 301 l 247 254 q 326 174 275 207 q 438 142 378 142 q 542 151 497 142 q 628 176 588 161 l 692 58 q 574 3 640 22 q 433 -17 508 -17 q 281 12 351 -17 q 157 89 210 40 q 74 204 104 138 q 43 346 43 271 q 71 485 43 419 q 148 601 99 551 q 263 679 197 650 q 403 708 328 708 m 560 403 q 500 500 543 463 q 403 538 457 538 q 302 500 347 538 q 240 403 257 463 l 560 403 z "},"f":{"ha":526,"x_min":26,"x_max":507,"o":"m 117 747 q 138 872 117 819 q 196 958 160 924 q 279 1008 232 992 q 379 1024 326 1024 q 443 1018 411 1024 q 507 1001 475 1013 l 492 861 l 446 868 q 426 870 435 869 q 408 871 417 871 q 331 845 356 871 q 307 771 307 819 l 307 689 l 492 689 l 492 518 l 307 518 l 307 0 l 117 0 l 117 518 l 26 518 l 26 619 l 117 689 l 117 747 l 117 747 z "},"g":{"ha":824,"x_min":44,"x_max":767,"o":"m 603 689 l 767 689 l 767 233 q 765 92 767 154 q 754 -19 763 31 q 727 -107 746 -68 q 675 -179 708 -146 q 538 -261 614 -239 q 379 -283 463 -283 q 246 -267 308 -283 q 133 -221 183 -250 l 133 -42 q 169 -76 146 -61 q 222 -103 192 -92 q 285 -120 251 -114 q 354 -126 319 -126 q 440 -115 400 -126 q 510 -76 481 -103 q 558 -10 540 -50 q 575 86 575 29 l 575 100 q 482 42 535 64 q 367 21 429 21 q 238 48 297 21 q 136 122 179 75 q 69 231 93 168 q 44 365 44 294 q 69 499 44 436 q 136 608 93 561 q 238 681 179 654 q 367 708 297 708 q 485 691 432 708 q 575 636 538 674 l 603 689 m 406 192 q 482 208 450 192 q 535 249 514 224 q 565 304 556 274 q 575 364 575 335 q 565 427 575 396 q 533 483 554 458 q 481 522 513 507 q 406 538 449 538 q 339 524 369 538 q 285 486 308 510 q 249 431 263 463 q 236 364 236 400 q 249 297 236 328 q 285 242 263 265 q 339 205 308 218 q 406 192 369 192 z "},"h":{"ha":790,"x_min":64,"x_max":767,"o":"m 446 708 q 573 680 514 708 q 675 602 632 651 q 742 487 718 553 q 767 346 767 421 l 767 0 l 579 0 l 579 126 q 580 235 579 179 q 581 332 581 292 q 568 408 581 371 q 533 474 556 446 q 481 520 511 503 q 418 538 451 538 q 357 526 386 538 q 306 491 328 514 q 270 433 283 468 q 257 351 257 399 l 257 0 l 64 0 l 64 1014 l 257 1014 l 257 636 q 340 690 293 671 q 446 708 386 708 z "},"i":{"ha":351,"x_min":69,"x_max":281,"o":"m 271 0 l 79 0 l 79 689 l 271 689 l 271 0 m 175 783 q 100 814 131 783 q 69 889 69 844 q 100 965 69 933 q 175 996 131 996 q 250 965 219 996 q 281 889 281 933 q 250 814 281 844 q 175 783 219 783 z "},"j":{"ha":379,"x_min":-72,"x_max":331,"o":"m 128 689 l 319 689 l 319 -3 q 298 -127 319 -75 q 240 -213 276 -179 q 156 -263 204 -247 q 56 -279 108 -279 q -8 -274 24 -279 q -72 -257 -40 -268 l -57 -117 q -22 -122 -35 -119 q 0 -125 -8 -124 q 14 -126 8 -126 q 29 -126 19 -126 q 105 -101 82 -126 q 128 -28 128 -75 l 128 689 m 225 996 q 300 965 269 996 q 331 889 331 933 q 300 814 331 844 q 225 783 269 783 q 150 814 181 783 q 119 889 119 844 q 150 965 119 933 q 225 996 181 996 z "},"k":{"ha":744,"x_min":64,"x_max":735,"o":"m 444 403 l 735 0 l 506 0 l 324 275 l 256 201 l 256 0 l 64 0 l 64 1014 l 256 1014 l 256 451 l 479 689 l 713 689 l 444 403 z "},"l":{"ha":315,"x_min":68,"x_max":260,"o":"m 68 1015 l 260 1015 l 260 0 l 68 0 l 68 1015 z "},"m":{"ha":1133,"x_min":64,"x_max":1074,"o":"m 829 689 q 910 676 867 689 q 990 632 953 664 q 1050 544 1026 600 q 1074 403 1074 489 l 1074 0 l 882 0 l 882 368 q 873 439 882 410 q 849 486 864 468 q 813 512 833 504 q 772 519 793 519 q 733 513 753 519 q 699 489 714 506 q 674 443 683 472 q 665 369 665 414 l 665 0 l 474 0 l 474 368 q 444 486 474 453 q 360 519 415 519 q 288 482 319 519 q 256 365 256 444 l 256 0 l 64 0 l 64 689 l 228 689 l 256 625 q 330 672 288 656 q 421 689 372 689 q 474 684 446 689 q 528 667 501 679 q 578 634 554 654 q 622 583 603 614 q 663 630 639 610 q 714 663 686 650 q 772 683 742 676 q 829 689 801 689 z "},"n":{"ha":751,"x_min":64,"x_max":694,"o":"m 421 689 q 507 678 460 689 q 596 636 554 667 q 666 551 638 606 q 694 411 694 497 l 694 0 l 501 0 l 501 404 q 491 458 501 436 q 463 494 481 481 q 424 513 446 507 q 379 519 401 519 q 340 513 361 519 q 299 493 318 507 q 268 457 281 479 q 256 404 256 435 l 256 0 l 64 0 l 64 689 l 228 689 l 256 636 q 331 674 289 660 q 421 689 372 689 z "},"o":{"ha":797,"x_min":42,"x_max":760,"o":"m 401 708 q 540 680 475 708 q 654 602 606 651 q 731 487 703 553 q 760 346 760 421 q 731 205 760 271 q 654 90 703 139 q 540 12 606 40 q 401 -17 475 -17 q 261 12 326 -17 q 147 90 196 40 q 70 205 99 139 q 42 346 42 271 q 70 487 42 421 q 147 602 99 553 q 261 680 196 651 q 401 708 326 708 m 401 151 q 466 165 436 151 q 519 203 496 179 q 555 262 542 228 q 568 338 568 296 q 555 415 568 379 q 519 478 542 451 q 466 522 496 506 q 401 538 436 538 q 336 522 367 538 q 283 478 306 506 q 247 415 260 451 q 233 338 233 379 q 247 262 233 296 q 283 203 260 228 q 336 165 306 179 q 401 151 367 151 z "},"p":{"ha":821,"x_min":64,"x_max":801,"o":"m 461 708 q 597 680 535 708 q 705 602 660 651 q 776 487 750 553 q 801 346 801 421 q 776 205 801 271 q 705 90 750 139 q 597 12 660 40 q 461 -17 535 -17 q 344 5 401 -17 q 256 60 288 26 l 256 -275 l 64 -275 l 64 689 l 228 689 l 256 642 q 346 693 296 678 q 461 708 396 708 m 436 154 q 506 169 474 154 q 563 210 539 185 q 602 271 588 236 q 617 346 617 306 q 602 420 617 385 q 563 481 588 456 q 506 522 539 507 q 436 538 474 538 q 366 527 399 538 q 309 494 333 517 q 271 434 285 471 q 257 346 257 397 q 271 262 257 297 q 309 202 285 226 q 366 166 333 178 q 436 154 399 154 z "},"q":{"ha":821,"x_min":19,"x_max":758,"o":"m 758 689 l 758 -275 l 567 -275 l 567 60 q 478 5 535 26 q 361 -17 421 -17 q 225 12 288 -17 q 117 90 163 40 q 45 205 71 139 q 19 346 19 271 q 45 487 19 421 q 117 602 71 553 q 225 680 163 651 q 361 708 288 708 q 476 693 426 708 q 567 642 526 678 l 594 689 l 758 689 m 386 154 q 456 167 424 154 q 513 204 489 179 q 551 265 538 229 q 565 350 565 301 q 551 437 565 401 q 513 494 538 472 q 456 527 489 517 q 386 538 424 538 q 316 522 349 538 q 259 481 283 507 q 220 420 235 456 q 206 346 206 385 q 220 271 206 306 q 259 210 235 236 q 316 169 283 185 q 386 154 349 154 z "},"r":{"ha":572,"x_min":60,"x_max":565,"o":"m 251 593 q 283 635 265 615 q 326 672 301 656 q 383 697 351 688 q 456 707 415 707 q 565 690 503 707 l 547 519 q 517 526 532 522 q 489 531 504 529 q 461 533 474 533 q 378 521 417 533 q 313 486 340 508 q 268 433 285 464 q 251 365 251 401 l 251 0 l 60 0 l 60 689 l 233 689 l 251 593 z "},"s":{"ha":615,"x_min":43,"x_max":576,"o":"m 500 361 q 576 207 576 307 q 555 121 576 161 q 496 50 533 81 q 408 2 458 19 q 301 -15 358 -15 q 217 -4 258 -15 q 142 26 176 7 q 81 73 107 46 q 43 133 56 100 q 114 167 75 149 q 182 201 153 186 q 221 163 194 181 q 293 146 247 146 q 363 168 340 146 q 385 210 385 190 q 369 235 385 224 q 335 254 354 247 q 289 266 307 265 q 247 274 271 267 q 133 322 172 292 q 75 382 93 351 q 55 440 57 413 q 53 485 53 468 q 72 569 53 529 q 126 640 92 610 q 205 688 160 669 q 301 706 250 706 q 383 693 344 706 q 454 658 422 681 q 509 606 486 636 q 543 538 532 575 l 394 488 q 360 528 386 513 q 306 543 335 543 q 258 524 276 543 q 240 485 240 504 q 258 448 240 461 q 296 429 275 435 q 326 424 311 426 q 354 419 340 422 q 438 394 403 408 q 500 361 474 381 z "},"t":{"ha":532,"x_min":26,"x_max":503,"o":"m 317 247 q 347 172 317 199 q 425 146 376 146 q 503 161 464 146 l 503 0 q 429 -19 468 -11 q 351 -26 390 -26 q 267 -15 307 -26 q 194 23 226 -4 q 144 95 163 50 q 125 207 125 140 l 125 518 l 26 518 l 26 647 l 125 689 l 125 843 l 317 843 l 317 689 l 503 689 l 503 518 l 317 518 l 317 247 l 317 247 z "},"u":{"ha":754,"x_min":58,"x_max":690,"o":"m 499 689 l 690 689 l 690 0 l 526 0 l 499 53 q 423 15 465 29 q 332 0 381 0 q 247 11 294 0 q 157 53 199 22 q 87 138 115 83 q 58 278 58 192 l 58 689 l 251 689 l 251 285 q 262 231 251 253 q 290 195 272 208 q 329 176 307 182 q 375 169 351 169 q 415 176 393 169 q 455 196 436 182 q 486 232 474 210 q 499 285 499 254 l 499 689 z "},"v":{"ha":825,"x_min":10,"x_max":813,"o":"m 606 689 l 813 689 l 535 0 l 288 0 l 10 689 l 215 689 l 411 179 l 606 689 z "},"w":{"ha":1210,"x_min":46,"x_max":1165,"o":"m 968 689 l 1165 689 l 958 0 l 715 0 l 615 332 l 606 431 l 594 332 l 494 0 l 253 0 l 46 689 l 243 689 l 386 190 l 525 689 l 685 689 l 824 188 l 968 689 z "},"x":{"ha":864,"x_min":50,"x_max":814,"o":"m 319 360 l 74 689 l 311 689 l 433 506 l 556 689 l 793 689 l 546 358 l 814 0 l 576 0 l 432 214 l 288 0 l 50 0 l 319 360 z "},"y":{"ha":821,"x_min":39,"x_max":804,"o":"m 594 689 l 804 689 l 369 -275 l 160 -275 l 331 104 l 39 689 l 253 689 l 432 329 l 594 689 z "},"z":{"ha":692,"x_min":60,"x_max":629,"o":"m 311 169 l 629 169 l 629 0 l 60 0 l 60 161 l 343 518 l 86 518 l 86 689 l 621 689 l 621 561 l 311 169 z "},"ß":{"ha":794,"x_min":85,"x_max":736,"o":"m 592 488 q 614 460 592 476 q 663 416 636 444 q 713 344 690 388 q 736 235 736 301 q 718 137 736 182 q 670 58 700 92 q 602 6 640 25 q 522 -14 564 -14 l 371 -14 l 371 167 l 414 167 q 501 197 475 167 q 526 271 526 226 q 517 315 526 293 q 491 353 508 336 q 449 379 474 369 q 394 389 425 389 l 394 533 q 440 551 419 538 q 477 585 461 565 q 502 631 493 606 q 511 682 511 656 q 501 734 511 711 q 475 774 492 757 q 438 799 458 790 q 397 807 418 807 q 310 776 340 807 q 279 663 279 744 q 279 579 279 632 q 278 460 279 526 q 278 319 278 394 q 278 172 278 244 l 278 -196 l 85 -196 l 85 -60 q 85 55 85 -14 q 85 222 85 124 q 85 449 85 319 q 86 744 86 578 q 115 843 89 797 q 181 923 140 889 q 272 976 221 957 q 376 996 322 996 l 404 996 q 512 975 460 996 q 605 916 564 954 q 670 825 646 878 q 694 708 694 772 q 678 613 694 650 q 643 552 663 575 q 608 515 624 529 q 592 488 592 500 z "},"A":{"ha":1113,"x_min":31,"x_max":1082,"o":"m 671 985 l 1082 0 l 854 0 l 765 211 l 347 211 l 260 0 l 31 0 l 442 985 l 671 985 m 686 403 l 557 713 l 428 403 l 686 403 z "},"N":{"ha":1014,"x_min":65,"x_max":949,"o":"m 739 985 l 949 985 l 949 0 l 749 0 l 275 643 l 275 0 l 65 0 l 65 985 l 263 985 l 739 338 l 739 985 z "},"Z":{"ha":878,"x_min":58,"x_max":817,"o":"m 351 192 l 817 192 l 817 0 l 58 0 l 58 140 l 518 793 l 107 793 l 107 985 l 788 985 l 788 808 l 351 192 z "},"T":{"ha":776,"x_min":32,"x_max":744,"o":"m 32 985 l 744 985 l 744 793 l 493 793 l 493 0 l 283 0 l 283 793 l 32 793 l 32 985 z "},"O":{"ha":1063,"x_min":46,"x_max":1017,"o":"m 531 999 q 719 958 631 999 q 874 849 808 918 q 978 688 940 779 q 1017 492 1017 596 q 978 296 1017 389 q 874 133 940 203 q 719 23 808 64 q 531 -18 631 -18 q 342 23 431 -18 q 188 133 253 64 q 84 296 122 203 q 46 492 46 389 q 84 688 46 596 q 188 849 122 779 q 342 958 253 918 q 531 999 431 999 m 531 192 q 638 215 588 192 q 725 280 688 239 q 784 375 763 321 q 806 492 806 429 q 784 609 806 554 q 725 705 763 664 q 638 769 688 746 q 531 793 588 793 q 424 769 474 793 q 336 705 374 746 q 277 609 299 664 q 256 492 256 554 q 277 375 256 429 q 336 280 299 321 q 424 215 374 239 q 531 192 474 192 z "},"P":{"ha":789,"x_min":65,"x_max":772,"o":"m 490 985 q 600 962 549 985 q 690 899 651 939 q 750 806 728 860 q 772 692 772 753 q 750 577 772 631 q 690 483 728 524 q 600 420 651 443 q 490 397 549 397 l 275 397 l 275 0 l 65 0 l 65 985 l 490 985 m 463 589 q 533 619 503 589 q 563 692 563 649 q 533 763 563 733 q 463 793 503 793 l 275 793 l 275 589 l 463 589 z "},"Q":{"ha":1097,"x_min":46,"x_max":1050,"o":"m 943 150 l 1050 114 l 986 -18 l 847 26 l 794 72 q 674 6 744 29 q 532 -18 604 -18 q 343 23 432 -18 q 188 133 254 64 q 84 296 122 203 q 46 492 46 389 q 84 688 46 596 q 188 849 122 779 q 343 958 254 918 q 532 999 432 999 q 720 958 632 999 q 874 849 808 918 q 978 688 940 779 q 1017 492 1017 596 q 988 324 1017 403 q 911 181 960 244 l 943 150 m 758 321 q 806 492 806 396 q 784 609 806 554 q 726 705 763 664 q 639 769 689 746 q 532 793 589 793 q 425 769 475 793 q 338 705 375 746 q 278 609 300 664 q 257 492 257 554 q 278 375 257 429 q 338 280 300 321 q 425 215 375 239 q 532 192 475 192 q 631 211 583 192 l 536 293 l 657 415 l 758 321 z "},"R":{"ha":954,"x_min":65,"x_max":921,"o":"m 774 692 q 760 602 774 644 q 724 524 747 560 q 667 462 700 489 q 594 418 633 435 l 921 0 l 675 0 l 371 397 l 276 397 l 276 0 l 65 0 l 65 985 l 490 985 q 601 962 549 985 q 691 899 653 939 q 751 806 729 860 q 774 692 774 753 m 464 589 q 533 619 504 589 q 563 692 563 649 q 533 763 563 733 q 464 793 504 793 l 276 793 l 276 589 l 464 589 z "},"S":{"ha":856,"x_min":54,"x_max":811,"o":"m 692 507 q 781 418 750 472 q 811 293 811 364 q 779 169 811 226 q 689 67 747 111 q 569 5 636 26 q 426 -18 501 -17 q 283 3 351 -18 q 163 65 215 24 q 54 210 83 125 l 249 300 q 258 265 249 286 q 289 225 268 244 q 343 192 310 206 q 425 178 376 178 q 494 188 464 178 q 544 212 524 197 q 574 245 564 226 q 585 283 585 264 q 570 325 585 306 q 525 356 556 344 q 408 388 469 375 q 288 422 346 401 q 179 475 229 442 q 100 568 129 508 q 74 681 74 621 q 105 810 74 747 q 190 915 136 872 q 306 977 242 956 q 440 999 369 999 q 576 978 511 999 q 692 917 640 957 q 771 829 742 879 l 613 721 q 540 785 583 761 q 442 810 496 810 q 326 776 367 810 q 285 689 285 743 q 308 644 285 664 q 367 610 331 625 q 450 583 404 594 q 541 559 496 571 q 626 535 586 547 q 692 507 667 522 z "},"U":{"ha":889,"x_min":58,"x_max":832,"o":"m 622 985 l 832 985 l 832 356 q 801 214 832 282 q 718 94 771 146 q 595 13 665 43 q 444 -18 525 -18 q 294 13 365 -18 q 172 94 224 43 q 89 214 119 146 q 58 356 58 282 l 58 985 l 268 985 l 268 397 q 282 319 268 356 q 319 253 296 282 q 376 208 343 225 q 444 192 408 192 q 514 208 482 192 q 570 253 546 225 q 608 319 594 282 q 622 397 622 356 l 622 985 z "},"V":{"ha":1119,"x_min":29,"x_max":1090,"o":"m 861 985 l 1090 985 l 675 0 l 443 0 l 29 985 l 258 985 l 560 249 l 861 985 z "},"W":{"ha":1525,"x_min":21,"x_max":1501,"o":"m 1282 985 l 1501 985 l 1224 0 l 963 0 l 760 663 l 557 0 l 299 0 l 21 985 l 240 985 l 435 240 l 658 985 l 861 985 l 1086 235 l 1282 985 z "},"X":{"ha":1061,"x_min":49,"x_max":1013,"o":"m 658 531 l 1013 0 l 760 0 l 531 340 l 303 0 l 49 0 l 404 531 l 100 985 l 353 985 l 531 719 l 708 985 l 963 985 l 658 531 z "},"Y":{"ha":963,"x_min":25,"x_max":938,"o":"m 683 985 l 938 985 l 586 461 l 586 0 l 376 0 l 376 461 l 25 985 l 279 985 l 482 682 l 683 985 z "},"B":{"ha":860,"x_min":67,"x_max":810,"o":"m 682 536 q 775 433 740 496 q 810 293 810 369 q 786 178 810 232 q 722 85 763 125 q 628 23 682 46 q 514 0 575 0 l 67 0 l 67 985 l 500 985 q 604 963 556 985 q 690 906 653 942 q 747 821 726 869 q 768 717 768 772 q 745 612 768 657 q 682 536 722 567 m 278 615 l 500 615 q 564 642 538 615 q 590 706 590 668 q 564 768 590 743 q 500 793 538 793 l 278 793 l 278 615 m 514 190 q 585 226 556 190 q 614 308 614 261 q 585 390 614 357 q 514 424 556 424 l 278 424 l 278 190 l 514 190 z "},"C":{"ha":965,"x_min":44,"x_max":925,"o":"m 529 192 q 660 222 596 192 q 789 325 724 253 l 925 196 q 738 36 843 90 q 522 -18 633 -18 q 335 23 422 -18 q 183 133 247 64 q 81 295 118 203 q 44 492 44 388 q 83 688 44 596 q 186 849 121 779 q 340 958 251 918 q 529 999 429 999 q 706 964 622 999 q 871 849 790 929 l 749 700 q 638 773 690 754 q 529 792 586 792 q 422 768 472 792 q 333 704 371 744 q 274 609 296 664 q 253 492 253 554 q 274 375 253 429 q 333 280 296 321 q 422 215 371 239 q 529 192 472 192 z "},"D":{"ha":949,"x_min":67,"x_max":901,"o":"m 464 985 q 653 946 571 985 q 790 840 735 907 q 873 683 844 774 q 901 492 901 593 q 872 299 901 389 q 789 143 842 210 q 664 38 736 76 q 507 0 592 0 l 67 0 l 67 985 l 464 985 m 465 190 q 567 215 525 190 q 638 281 610 239 q 678 376 665 322 q 692 490 692 431 q 679 605 692 550 q 639 701 667 660 q 568 768 611 743 q 465 793 525 793 l 278 793 l 278 190 l 465 190 z "},"E":{"ha":749,"x_min":67,"x_max":682,"o":"m 67 985 l 682 985 l 682 793 l 278 793 l 278 615 l 633 615 l 633 424 l 278 424 l 278 190 l 682 190 l 682 0 l 67 0 l 67 985 z "},"F":{"ha":699,"x_min":65,"x_max":681,"o":"m 65 985 l 681 985 l 681 793 l 276 793 l 276 615 l 632 615 l 632 424 l 276 424 l 276 0 l 65 0 l 65 985 z "},"G":{"ha":972,"x_min":43,"x_max":925,"o":"m 553 557 l 925 557 l 925 196 q 740 36 842 90 q 528 -18 639 -18 q 339 23 428 -18 q 185 133 250 64 q 81 295 119 203 q 43 492 43 388 q 81 688 43 596 q 185 849 119 779 q 339 958 250 918 q 528 999 428 999 q 706 964 622 999 q 869 849 790 929 l 747 700 q 638 773 689 754 q 529 792 586 792 q 420 768 471 792 q 332 704 369 744 q 273 609 294 664 q 251 492 251 554 q 273 375 251 429 q 332 280 294 321 q 420 215 369 239 q 529 192 471 192 q 631 210 581 192 q 733 272 682 229 l 733 379 l 553 379 l 553 557 z "},"H":{"ha":1003,"x_min":65,"x_max":938,"o":"m 726 985 l 938 985 l 938 0 l 726 0 l 726 424 l 275 424 l 275 0 l 65 0 l 65 985 l 275 985 l 275 615 l 726 615 l 726 985 z "},"I":{"ha":488,"x_min":65,"x_max":424,"o":"m 424 985 l 424 807 l 350 807 l 350 176 l 424 176 l 424 0 l 65 0 l 65 176 l 139 176 l 139 807 l 65 807 l 65 985 l 424 985 z "},"J":{"ha":692,"x_min":10,"x_max":629,"o":"m 629 985 l 629 389 l 629 353 q 622 235 629 292 q 576 126 614 179 q 460 24 529 58 q 313 -10 392 -10 q 210 8 258 -10 q 123 58 163 26 q 54 131 83 89 q 10 222 25 174 l 192 283 q 234 217 203 243 q 307 190 265 190 q 383 223 356 190 q 417 297 410 256 q 417 336 417 303 q 418 419 418 369 q 418 530 418 468 q 418 654 418 592 q 417 985 418 801 l 629 985 z "},"K":{"ha":989,"x_min":65,"x_max":969,"o":"m 494 535 l 969 0 l 710 0 l 361 401 l 276 315 l 276 0 l 65 0 l 65 985 l 276 985 l 276 586 l 672 985 l 942 985 l 494 535 z "},"L":{"ha":694,"x_min":65,"x_max":681,"o":"m 276 190 l 681 190 l 681 0 l 65 0 l 65 985 l 276 985 l 276 190 z "},"M":{"ha":1192,"x_min":65,"x_max":1126,"o":"m 928 985 l 1126 985 l 1126 0 l 917 0 l 917 650 l 682 321 l 514 321 l 276 640 l 276 0 l 65 0 l 65 985 l 265 985 l 599 531 l 928 985 z "},"¸":{"ha":457,"x_min":78,"x_max":353,"o":"m 215 -47 q 274 -58 249 -47 q 317 -87 299 -69 q 344 -127 335 -104 q 353 -174 353 -150 q 340 -226 353 -203 q 303 -266 326 -250 q 251 -290 281 -282 q 189 -299 222 -299 q 121 -292 146 -299 q 96 -285 106 -289 l 107 -215 q 125 -216 117 -215 q 144 -217 133 -217 q 197 -206 175 -217 q 219 -171 219 -194 q 167 -128 219 -128 q 143 -131 156 -128 q 119 -140 131 -133 l 78 -101 l 196 67 l 328 67 l 215 -47 l 215 -47 z "},"˘":{"ha":535,"x_min":67,"x_max":468,"o":"m 468 1242 q 452 1164 468 1200 q 409 1101 436 1128 q 345 1058 382 1074 q 267 1042 308 1042 q 189 1058 225 1042 q 126 1101 153 1074 q 83 1164 99 1128 q 67 1242 67 1200 l 200 1242 q 219 1194 200 1214 q 267 1175 239 1175 q 315 1194 294 1175 q 335 1242 335 1214 l 468 1242 z "},".":{"ha":346,"x_min":67,"x_max":279,"o":"m 172 200 q 248 169 217 200 q 279 94 279 139 q 248 19 279 50 q 172 -11 217 -11 q 97 19 128 -11 q 67 94 67 50 q 97 169 67 139 q 172 200 128 200 z "},":":{"ha":436,"x_min":117,"x_max":332,"o":"m 222 200 q 298 169 267 200 q 329 94 329 139 q 298 19 329 50 q 222 -11 267 -11 q 147 19 178 -11 q 117 94 117 50 q 147 169 117 139 q 222 200 178 200 m 226 657 q 301 626 271 657 q 332 551 332 596 q 301 476 332 507 q 226 444 271 444 q 151 476 182 444 q 119 551 119 507 q 151 626 119 596 q 226 657 182 657 z "},";":{"ha":394,"x_min":67,"x_max":328,"o":"m 113 176 l 328 176 l 214 -200 l 67 -200 l 113 176 m 222 657 q 297 626 267 657 q 328 551 328 596 q 297 476 328 507 q 222 444 267 444 q 147 476 178 444 q 115 551 115 507 q 147 626 115 596 q 222 657 178 657 z "},"(":{"ha":446,"x_min":67,"x_max":379,"o":"m 375 1008 q 244 742 292 890 q 196 425 196 593 q 244 104 196 254 q 379 -164 293 -46 l 251 -201 q 115 88 164 -71 q 67 425 67 246 q 115 758 67 601 q 249 1046 163 915 l 375 1008 l 375 1008 z "},")":{"ha":446,"x_min":67,"x_max":379,"o":"m 197 1046 q 331 758 283 915 q 379 425 379 601 q 330 88 379 246 q 193 -201 281 -71 l 67 -164 q 201 104 153 -46 q 250 425 250 254 q 202 742 250 593 q 71 1008 154 890 l 197 1046 z "},"!":{"ha":389,"x_min":89,"x_max":301,"o":"m 196 200 q 271 169 240 200 q 301 94 301 139 q 271 19 301 50 q 196 -11 240 -11 q 120 19 151 -11 q 89 94 89 50 q 120 169 89 139 q 196 200 151 200 m 111 285 l 94 985 l 297 985 l 282 285 l 111 285 z "},"?":{"ha":657,"x_min":67,"x_max":590,"o":"m 214 200 q 290 169 258 200 q 321 94 321 139 q 290 19 321 50 q 214 -11 258 -11 q 139 19 169 -11 q 108 94 108 50 q 139 169 108 139 q 214 200 169 200 m 250 997 q 397 972 333 997 q 503 905 461 947 q 568 806 546 863 q 590 685 590 749 q 432 433 590 528 q 388 408 410 419 q 349 382 367 397 q 319 344 332 367 q 303 285 307 322 l 136 285 l 136 315 q 149 397 136 363 q 188 459 163 431 q 248 511 213 488 q 329 561 283 535 q 381 615 363 581 q 400 688 400 649 q 387 744 400 718 q 351 788 374 769 q 297 815 328 806 q 231 825 265 825 q 183 822 203 825 q 149 814 163 818 q 122 803 133 808 l 67 947 q 250 997 149 997 z "}," ":{"ha":382,"x_min":0,"x_max":0,"o":""},"¨":{"ha":665,"x_min":58,"x_max":607,"o":"m 501 1253 q 576 1222 546 1253 q 607 1147 607 1192 q 576 1072 607 1103 q 501 1040 546 1040 q 426 1072 457 1040 q 394 1147 394 1103 q 426 1222 394 1192 q 501 1253 457 1253 m 165 1253 q 240 1222 210 1253 q 271 1147 271 1192 q 240 1072 271 1103 q 165 1040 210 1040 q 90 1072 121 1040 q 58 1147 58 1103 q 90 1222 58 1192 q 165 1253 121 1253 z "},"Ö":{"ha":1085,"x_min":46,"x_max":1017,"o":"m 531 999 q 719 958 631 999 q 874 849 808 918 q 978 688 940 779 q 1017 492 1017 596 q 978 296 1017 389 q 874 133 940 203 q 719 23 808 64 q 531 -18 631 -18 q 342 23 431 -18 q 188 133 253 64 q 84 296 122 203 q 46 492 46 389 q 84 688 46 596 q 188 849 122 779 q 342 958 253 918 q 531 999 431 999 m 531 192 q 638 215 588 192 q 725 280 688 239 q 784 375 763 321 q 806 492 806 429 q 784 609 806 554 q 725 705 763 664 q 638 769 688 746 q 531 793 588 793 q 424 769 474 793 q 336 705 374 746 q 277 609 299 664 q 256 492 256 554 q 277 375 256 429 q 336 280 299 321 q 424 215 374 239 q 531 192 474 192 m 701 1263 q 776 1232 746 1263 q 807 1157 807 1201 q 776 1081 807 1113 q 701 1050 746 1050 q 626 1081 657 1050 q 594 1157 594 1113 q 626 1232 594 1201 q 701 1263 657 1263 m 365 1263 q 440 1232 410 1263 q 471 1157 471 1201 q 440 1081 471 1113 q 365 1050 410 1050 q 290 1081 321 1050 q 258 1157 258 1113 q 290 1232 258 1201 q 365 1263 321 1263 z "},"Ü":{"ha":956,"x_min":92,"x_max":865,"o":"m 656 985 l 865 985 l 865 356 q 835 214 865 282 q 751 94 804 146 q 628 13 699 43 q 478 -18 558 -18 q 328 13 399 -18 q 205 94 257 43 q 122 214 153 146 q 92 356 92 282 l 92 985 l 301 985 l 301 397 q 315 319 301 356 q 353 253 329 282 q 409 208 376 225 q 478 192 442 192 q 547 208 515 192 q 603 253 579 225 q 642 319 628 282 q 656 397 656 356 l 656 985 m 647 1263 q 722 1232 692 1263 q 753 1157 753 1201 q 722 1081 753 1113 q 647 1050 692 1050 q 572 1081 603 1050 q 540 1157 540 1113 q 572 1232 540 1201 q 647 1263 603 1263 m 311 1263 q 386 1232 356 1263 q 417 1157 417 1201 q 386 1081 417 1113 q 311 1050 356 1050 q 235 1081 267 1050 q 204 1157 204 1113 q 235 1232 204 1201 q 311 1263 267 1263 z "},"ö":{"ha":832,"x_min":43,"x_max":761,"o":"m 403 708 q 542 680 476 708 q 656 602 607 651 q 733 487 704 553 q 761 346 761 421 q 733 205 761 271 q 656 90 704 139 q 542 12 607 40 q 403 -17 476 -17 q 263 12 328 -17 q 149 90 197 40 q 72 205 100 139 q 43 346 43 271 q 72 487 43 421 q 149 602 100 553 q 263 680 197 651 q 403 708 328 708 m 403 151 q 467 165 438 151 q 520 203 497 179 q 556 262 543 228 q 569 338 569 296 q 556 415 569 379 q 520 478 543 451 q 467 522 497 506 q 403 538 438 538 q 338 522 368 538 q 284 478 307 506 q 248 415 261 451 q 235 338 235 379 q 248 262 235 296 q 284 203 261 228 q 338 165 307 179 q 403 151 368 151 m 576 985 q 651 954 621 985 q 682 879 682 924 q 651 803 682 835 q 576 772 621 772 q 501 803 532 772 q 469 879 469 835 q 501 954 469 924 q 576 985 532 985 m 240 985 q 315 954 285 985 q 346 879 346 924 q 315 803 346 835 q 240 772 285 772 q 165 803 196 772 q 133 879 133 835 q 165 954 133 924 q 240 985 196 985 z "},"ü":{"ha":807,"x_min":58,"x_max":690,"o":"m 499 689 l 690 689 l 690 0 l 526 0 l 499 53 q 423 15 465 29 q 332 0 381 0 q 247 11 294 0 q 157 53 199 22 q 87 138 115 83 q 58 278 58 192 l 58 689 l 251 689 l 251 285 q 262 231 251 253 q 290 195 272 208 q 329 176 307 182 q 375 169 351 169 q 415 176 393 169 q 455 196 436 182 q 486 232 474 210 q 499 285 499 254 l 499 689 m 549 986 q 624 956 593 986 q 654 881 654 925 q 624 805 654 836 q 549 774 593 774 q 473 805 504 774 q 442 881 442 836 q 473 956 442 925 q 549 986 504 986 m 213 986 q 288 956 257 986 q 318 881 318 925 q 288 805 318 836 q 213 774 257 774 q 137 805 168 774 q 106 881 106 836 q 137 956 106 925 q 213 986 168 986 z "},"Ğ":{"ha":1006,"x_min":43,"x_max":925,"o":"m 736 1250 q 720 1172 736 1208 q 677 1109 704 1136 q 613 1066 650 1082 q 535 1050 576 1050 q 457 1066 493 1050 q 394 1109 421 1082 q 351 1172 367 1136 q 335 1250 335 1208 l 468 1250 q 488 1203 468 1222 q 535 1183 507 1183 q 582 1203 563 1183 q 601 1250 601 1222 l 736 1250 m 553 557 l 925 557 l 925 196 q 740 36 842 90 q 528 -18 639 -18 q 339 23 428 -18 q 185 133 250 64 q 81 295 119 203 q 43 492 43 388 q 81 688 43 596 q 185 849 119 779 q 339 958 250 918 q 528 999 428 999 q 706 964 622 999 q 869 849 790 929 l 747 700 q 638 773 689 754 q 529 792 586 792 q 420 768 471 792 q 332 704 369 744 q 273 609 294 664 q 251 492 251 554 q 273 375 251 429 q 332 280 294 321 q 420 215 369 239 q 529 192 471 192 q 631 210 581 192 q 733 272 682 229 l 733 379 l 553 379 l 553 557 z "},"ğ":{"ha":856,"x_min":44,"x_max":767,"o":"m 635 985 q 619 907 635 943 q 576 844 603 871 q 512 801 549 817 q 433 785 475 785 q 356 801 392 785 q 292 844 319 817 q 249 907 265 871 q 233 985 233 943 l 367 985 q 386 938 367 957 q 433 918 406 918 q 481 938 461 918 q 500 985 500 957 l 635 985 m 603 689 l 767 689 l 767 233 q 765 92 767 154 q 754 -19 763 31 q 727 -107 746 -68 q 675 -179 708 -146 q 538 -261 614 -239 q 379 -283 463 -283 q 246 -267 308 -283 q 133 -221 183 -250 l 133 -42 q 169 -76 146 -61 q 222 -103 192 -92 q 285 -120 251 -114 q 354 -126 319 -126 q 440 -115 400 -126 q 510 -76 481 -103 q 558 -10 540 -50 q 575 86 575 29 l 575 100 q 482 42 535 64 q 367 21 429 21 q 238 48 297 21 q 136 122 179 75 q 69 231 93 168 q 44 365 44 294 q 69 499 44 436 q 136 608 93 561 q 238 681 179 654 q 367 708 297 708 q 485 691 432 708 q 575 636 538 674 l 603 689 m 406 192 q 482 208 450 192 q 535 249 514 224 q 565 304 556 274 q 575 364 575 335 q 565 427 575 396 q 533 483 554 458 q 481 522 513 507 q 406 538 449 538 q 339 524 369 538 q 285 486 308 510 q 249 431 263 463 q 236 364 236 400 q 249 297 236 328 q 285 242 263 265 q 339 205 308 218 q 406 192 369 192 z "},"İ":{"ha":538,"x_min":89,"x_max":447,"o":"m 267 1050 q 191 1081 222 1050 q 160 1156 160 1111 q 191 1231 160 1200 q 267 1263 222 1263 q 342 1231 311 1263 q 372 1156 372 1200 q 342 1081 372 1111 q 267 1050 311 1050 m 447 985 l 447 807 l 374 807 l 374 176 l 447 176 l 447 0 l 89 0 l 89 176 l 163 176 l 163 807 l 89 807 l 89 985 l 447 985 z "},"ı":{"ha":364,"x_min":86,"x_max":278,"o":"m 278 0 l 86 0 l 86 689 l 278 689 l 278 0 z "},"Ş":{"ha":856,"x_min":47,"x_max":806,"o":"m 424 -61 q 482 -72 457 -61 q 525 -101 507 -83 q 552 -141 543 -118 q 561 -187 561 -164 q 548 -240 561 -217 q 512 -280 535 -264 q 460 -304 489 -296 q 397 -312 431 -312 q 329 -306 354 -312 q 304 -299 314 -303 l 315 -229 q 333 -230 325 -229 q 353 -231 342 -231 q 406 -219 383 -231 q 428 -185 428 -208 q 375 -142 428 -142 q 351 -144 364 -142 q 328 -154 339 -147 l 286 -115 l 357 -14 q 248 13 299 -7 q 156 65 197 32 q 47 210 76 125 l 242 300 q 251 265 242 286 q 282 225 261 244 q 336 192 303 206 q 418 178 369 178 q 519 201 481 178 q 572 253 558 224 q 572 313 585 283 q 518 356 558 342 q 401 388 463 375 q 281 422 339 401 q 172 475 222 442 q 93 568 122 508 q 67 661 71 613 q 77 756 64 710 q 117 844 90 803 q 183 915 144 885 q 299 976 235 956 q 433 999 363 997 q 569 978 504 999 q 685 917 633 957 q 764 829 735 879 l 606 721 q 533 785 576 761 q 435 810 489 810 q 319 776 360 810 q 278 689 278 743 q 301 644 278 664 q 360 610 324 625 q 443 583 397 594 q 534 559 489 571 q 619 535 579 547 q 685 507 660 522 q 804 297 804 436 q 774 172 806 231 q 682 68 742 113 q 469 -14 592 -1 l 424 -61 l 424 -61 z "},"ş":{"ha":646,"x_min":61,"x_max":594,"o":"m 322 -61 q 381 -72 356 -61 q 424 -101 406 -83 q 451 -141 442 -118 q 460 -187 460 -164 q 447 -240 460 -217 q 410 -280 433 -264 q 358 -304 388 -296 q 296 -312 329 -312 q 228 -306 253 -312 q 203 -299 213 -303 l 214 -229 q 232 -230 224 -229 q 251 -231 240 -231 q 304 -219 282 -231 q 326 -185 326 -208 q 274 -142 326 -142 q 250 -144 263 -142 q 226 -154 238 -147 l 185 -115 l 258 -10 q 136 42 190 3 q 61 133 81 81 q 132 167 93 149 q 200 201 171 186 q 239 163 213 181 q 311 146 265 146 q 359 155 340 146 q 388 176 378 164 q 401 202 399 189 q 399 225 404 215 q 381 242 393 235 q 353 253 368 249 q 326 261 339 258 q 306 265 313 264 q 132 335 183 288 q 97 377 108 354 q 78 421 85 400 q 72 459 72 442 q 71 485 71 476 q 92 572 71 531 q 150 646 113 614 q 228 690 185 674 q 319 706 271 706 q 412 690 368 706 q 490 646 456 674 q 561 538 543 601 l 413 488 q 378 528 404 513 q 324 543 353 543 q 276 524 294 543 q 258 485 258 504 q 279 446 258 456 q 306 433 292 438 q 335 426 321 429 q 444 399 400 415 q 518 361 488 383 q 594 207 594 307 q 571 116 594 158 q 504 42 547 74 q 371 -11 447 0 l 322 -61 l 322 -61 z "},"ç":{"ha":729,"x_min":67,"x_max":706,"o":"m 396 -61 q 454 -72 429 -61 q 497 -101 479 -83 q 524 -141 515 -118 q 533 -187 533 -164 q 520 -240 533 -217 q 484 -280 507 -264 q 432 -304 461 -296 q 369 -312 403 -312 q 301 -306 326 -312 q 276 -299 286 -303 l 288 -229 q 306 -230 297 -229 q 325 -231 314 -231 q 378 -219 356 -231 q 400 -185 400 -208 q 347 -142 400 -142 q 324 -144 336 -142 q 300 -154 311 -147 l 258 -115 l 336 -4 q 228 43 278 10 q 143 122 179 76 q 87 225 107 168 q 67 346 67 282 q 95 487 67 421 q 172 602 124 553 q 286 680 221 651 q 426 708 351 708 q 583 672 511 708 q 706 574 656 636 l 572 471 q 499 523 532 508 q 426 538 467 538 q 361 522 392 538 q 308 478 331 506 q 272 415 285 451 q 258 338 258 379 q 272 262 258 296 q 308 203 285 228 q 361 165 331 179 q 426 151 392 151 q 510 172 469 151 q 581 228 551 192 l 699 111 q 585 20 651 54 q 440 -17 518 -14 l 396 -61 l 396 -61 z "},"Ç":{"ha":956,"x_min":35,"x_max":915,"o":"m 492 -61 q 550 -72 525 -61 q 593 -101 575 -83 q 620 -141 611 -118 q 629 -187 629 -164 q 616 -240 629 -217 q 580 -280 603 -264 q 528 -304 557 -296 q 465 -312 499 -312 q 397 -306 422 -312 q 372 -299 382 -303 l 383 -229 q 401 -230 393 -229 q 421 -231 410 -231 q 474 -219 451 -231 q 496 -185 496 -208 q 443 -142 496 -142 q 419 -144 432 -142 q 396 -154 407 -147 l 354 -115 l 428 -10 q 271 52 343 7 q 147 164 199 97 q 65 315 94 231 q 35 492 35 399 q 73 688 35 596 q 176 849 111 779 q 331 958 242 918 q 519 999 419 999 q 697 964 613 999 q 861 849 781 929 l 739 700 q 628 773 681 754 q 519 792 576 792 q 412 768 463 792 q 324 704 361 744 q 265 609 286 664 q 243 492 243 554 q 265 375 243 429 q 324 280 286 321 q 412 215 361 239 q 519 192 463 192 q 650 222 586 192 q 779 325 714 253 l 915 196 q 738 42 838 96 q 535 -17 639 -11 l 492 -61 l 492 -61 z "},",":{"ha":419,"x_min":67,"x_max":328,"o":"m 113 176 l 328 176 l 214 -200 l 67 -200 l 113 176 z "},"a":{"ha":844,"x_min":44,"x_max":783,"o":"m 783 689 l 783 0 l 618 0 l 599 74 q 502 1 558 19 q 385 -17 446 -17 q 249 12 311 -17 q 142 90 188 40 q 70 205 96 139 q 44 346 44 271 q 70 487 44 421 q 142 602 96 553 q 249 680 188 651 q 385 708 311 708 q 507 688 451 708 q 599 621 563 667 l 618 689 l 783 689 m 592 343 q 577 434 592 397 q 538 494 563 471 q 481 527 514 517 q 411 538 449 538 q 341 522 374 538 q 283 481 308 507 q 244 420 258 456 q 231 346 231 385 q 244 271 231 306 q 283 210 258 236 q 341 169 308 185 q 411 154 374 154 q 538 201 486 154 q 592 343 590 247 z "},"&":{"ha":968,"x_min":63,"x_max":957,"o":"m 928 361 q 851 281 892 321 q 771 206 811 242 l 957 0 l 721 0 l 636 92 q 498 7 571 43 q 342 -29 425 -29 q 239 -12 289 -29 q 149 39 189 6 q 86 122 110 72 q 63 236 63 171 q 113 399 63 324 q 238 535 163 474 l 78 717 q 104 839 78 785 q 174 931 131 893 q 272 988 217 968 q 382 1008 326 1008 q 485 987 435 1008 q 573 928 535 965 q 635 844 611 892 q 658 743 658 796 q 645 669 658 703 q 610 608 632 636 q 560 554 589 579 q 499 507 531 529 l 656 336 q 685 364 671 347 q 714 396 699 381 l 801 486 l 928 361 m 331 138 q 401 151 367 138 q 461 181 435 164 q 518 224 492 199 q 435 314 476 271 q 353 404 393 357 q 282 338 314 374 q 251 299 268 322 q 233 224 233 275 q 240 197 233 213 q 258 169 246 182 q 288 147 269 156 q 331 138 306 138 m 369 838 q 317 824 336 838 q 288 794 297 810 q 274 751 276 775 l 382 639 q 433 678 414 661 q 460 708 451 696 q 472 731 469 721 q 475 750 475 742 q 442 813 475 789 q 369 838 408 838 z "},"%":{"ha":1047,"x_min":44,"x_max":1006,"o":"m 888 965 l 258 -47 l 147 22 l 778 1033 l 888 965 m 774 451 q 863 433 821 451 q 938 383 906 415 q 988 309 969 351 q 1006 219 1006 267 q 988 129 1006 171 q 938 56 969 88 q 863 6 906 24 q 774 -12 821 -12 q 683 6 725 -12 q 610 56 642 24 q 560 129 578 88 q 542 219 542 171 q 560 309 542 267 q 610 383 578 351 q 683 433 642 415 q 774 451 725 451 m 774 119 q 844 149 815 119 q 874 219 874 179 q 844 290 874 261 q 774 319 815 319 q 703 290 732 319 q 674 219 674 261 q 703 149 674 179 q 774 119 732 119 m 276 1004 q 366 986 324 1004 q 440 936 408 968 q 490 862 472 904 q 508 772 508 819 q 490 682 508 724 q 440 608 472 640 q 366 558 408 576 q 276 540 324 540 q 186 558 228 540 q 113 608 144 576 q 63 682 81 640 q 44 772 44 724 q 63 862 44 819 q 113 936 81 904 q 186 986 144 968 q 276 1004 228 1004 m 276 672 q 347 701 318 672 q 376 772 376 731 q 347 843 376 814 q 276 872 318 872 q 206 843 235 872 q 176 772 176 814 q 206 701 176 731 q 276 672 235 672 z "},"$":{"ha":788,"x_min":32,"x_max":756,"o":"m 642 483 q 756 283 756 417 q 733 178 756 226 q 672 92 711 129 q 580 28 633 54 q 464 -11 526 1 l 464 -140 l 346 -140 l 346 -17 q 238 6 289 -12 q 147 52 188 24 q 76 118 106 81 q 32 200 46 156 l 218 286 q 225 258 218 276 q 247 223 232 240 q 285 191 261 206 q 346 172 310 176 l 346 375 q 226 415 281 392 q 133 470 172 438 q 72 548 94 503 q 50 654 50 593 q 75 765 50 714 q 141 856 100 817 q 235 918 182 894 q 346 949 289 942 l 346 1061 l 464 1061 l 464 949 q 538 931 500 944 q 608 898 575 918 q 670 851 642 878 q 717 792 699 824 l 565 688 q 521 733 546 715 q 464 764 496 751 l 464 542 q 561 515 513 529 q 642 483 610 501 m 331 582 q 338 579 335 581 q 346 576 342 578 l 346 767 q 275 726 299 756 q 251 657 251 696 q 274 615 251 633 q 331 582 297 596 m 533 242 q 539 269 539 253 q 519 317 539 297 q 464 344 499 338 l 464 182 q 509 208 492 193 q 533 242 526 224 z "},"#":{"ha":1028,"x_min":33,"x_max":994,"o":"m 790 582 l 747 333 l 936 333 l 936 201 l 726 201 l 690 -11 l 561 11 l 593 199 l 350 199 l 315 -11 l 185 11 l 217 196 l 33 196 l 33 329 l 239 329 l 281 578 l 93 578 l 93 710 l 303 710 l 338 922 l 468 900 l 436 713 l 678 713 l 714 922 l 843 900 l 811 715 l 994 715 l 994 583 l 790 582 m 656 579 l 414 579 l 372 332 l 614 332 l 656 579 z "},"\"":{"ha":561,"x_min":61,"x_max":506,"o":"m 315 985 l 506 985 l 460 610 l 339 610 l 315 985 m 83 610 l 61 985 l 250 985 l 204 610 l 83 610 z "},"*":{"ha":678,"x_min":29,"x_max":647,"o":"m 583 482 l 467 394 l 338 617 l 213 396 l 96 482 l 271 664 l 29 706 l 72 844 l 293 756 l 265 985 l 411 985 l 385 758 l 604 844 l 647 706 l 419 660 l 583 482 z "},"+":{"ha":726,"x_min":14,"x_max":713,"o":"m 713 476 l 713 346 l 429 346 l 429 61 l 297 61 l 297 346 l 14 346 l 14 476 l 297 476 l 297 761 l 429 761 l 429 476 l 713 476 z "},"-":{"ha":540,"x_min":67,"x_max":475,"o":"m 475 317 l 67 317 l 67 447 l 475 447 l 475 317 z "},"/":{"ha":760,"x_min":10,"x_max":750,"o":"m 750 965 l 121 -47 l 10 22 l 640 1033 l 750 965 z "},"<":{"ha":696,"x_min":69,"x_max":639,"o":"m 69 282 l 69 419 l 639 701 l 639 538 l 221 351 l 639 165 l 639 3 l 69 282 z "},"=":{"ha":725,"x_min":67,"x_max":658,"o":"m 67 625 l 658 625 l 658 493 l 67 493 l 67 625 m 67 338 l 658 338 l 658 206 l 67 206 l 67 338 z "},">":{"ha":697,"x_min":72,"x_max":642,"o":"m 72 3 l 72 165 l 490 351 l 72 538 l 72 701 l 642 419 l 642 282 l 72 3 z "},"@":{"ha":1161,"x_min":47,"x_max":1119,"o":"m 583 1008 q 803 969 704 1008 q 972 860 901 931 q 1081 692 1042 790 q 1119 474 1119 593 q 1106 353 1119 403 q 1074 269 1093 303 q 1033 217 1054 236 q 994 190 1011 199 q 915 172 958 172 q 826 194 869 172 q 750 260 783 217 q 667 201 714 222 q 564 181 621 181 q 455 203 506 181 q 367 263 404 225 q 307 352 329 301 q 285 461 285 403 q 307 570 285 519 q 367 659 329 621 q 455 719 404 697 q 564 742 506 742 q 649 728 608 742 q 721 689 689 714 q 724 706 721 697 q 731 719 726 713 q 747 731 736 726 l 856 719 l 831 422 l 831 411 q 838 366 831 386 q 858 333 846 346 q 886 312 871 319 q 915 304 901 304 q 965 345 946 304 q 988 453 983 386 q 953 651 988 569 q 863 783 919 732 q 734 856 807 833 q 583 878 661 878 q 428 844 501 878 q 299 754 354 811 q 211 622 243 697 q 179 463 179 547 q 210 301 179 375 q 298 172 242 226 q 431 88 354 118 q 601 57 508 57 q 758 88 685 57 l 808 -33 q 600 -75 708 -75 q 378 -34 479 -75 q 203 79 276 7 q 88 250 129 151 q 47 463 47 349 q 90 672 47 572 q 205 846 132 771 q 376 965 278 921 q 583 1008 474 1008 m 564 313 q 624 326 599 313 q 665 360 649 339 q 688 407 681 381 q 696 461 696 433 q 688 515 696 488 q 665 563 681 542 q 624 597 649 583 q 564 610 599 610 q 506 598 533 610 q 459 566 479 586 q 427 519 439 546 q 415 461 415 492 q 427 403 415 431 q 459 356 439 376 q 506 324 479 336 q 564 313 533 313 z "},"`":{"ha":336,"x_min":28,"x_max":257,"o":"m 238 986 l 257 738 l 115 738 l 28 986 l 238 986 z "},"_":{"ha":829,"x_min":67,"x_max":763,"o":"m 67 0 l 763 0 l 763 -132 l 67 -132 l 67 0 z "},"^":{"ha":628,"x_min":33,"x_max":594,"o":"m 594 575 l 447 575 l 314 846 l 181 575 l 33 575 l 243 999 l 385 999 l 594 575 z "},"]":{"ha":433,"x_min":61,"x_max":368,"o":"m 368 -219 l 61 -219 l 61 -87 l 236 -87 l 236 1011 l 61 1011 l 61 1143 l 368 1143 l 368 -219 z "},"\\":{"ha":760,"x_min":10,"x_max":750,"o":"m 10 965 l 119 1033 l 750 22 l 639 -47 l 10 965 z "},"[":{"ha":451,"x_min":67,"x_max":372,"o":"m 67 1143 l 372 1143 l 372 1011 l 199 1011 l 199 -87 l 372 -87 l 372 -219 l 67 -219 l 67 1143 z "},"~":{"ha":825,"x_min":38,"x_max":788,"o":"m 550 422 q 605 429 579 422 q 651 447 631 436 q 686 468 672 457 q 707 488 700 479 l 788 415 q 763 391 783 411 q 710 349 743 371 q 635 309 678 326 q 544 292 593 292 q 462 308 494 292 q 402 342 429 324 q 349 377 375 361 q 286 393 322 393 q 225 383 253 393 q 176 362 197 374 q 144 340 156 350 q 131 329 132 331 l 38 383 q 54 408 39 385 q 100 456 69 431 q 177 503 131 482 q 286 525 224 525 q 381 509 342 525 q 451 474 421 493 q 503 438 481 454 q 550 422 526 422 z "},"}":{"ha":418,"x_min":51,"x_max":410,"o":"m 121 286 q 144 369 122 331 q 206 432 165 408 l 232 444 q 244 450 235 447 q 260 453 253 453 q 200 488 226 465 q 156 542 174 511 q 130 606 139 572 q 121 674 121 640 l 121 946 q 117 976 121 960 q 106 1007 114 993 q 84 1030 97 1021 q 51 1039 71 1039 l 51 1147 q 130 1131 93 1147 q 194 1088 167 1115 q 237 1024 221 1061 q 253 946 253 988 l 253 649 q 258 622 253 640 q 279 581 263 603 q 326 541 296 560 q 410 517 357 522 l 410 381 q 324 360 356 375 q 276 327 292 344 q 257 295 261 310 q 253 278 253 281 l 253 -28 q 237 -106 253 -69 q 194 -170 221 -143 q 130 -213 167 -197 q 51 -229 93 -229 l 51 -121 q 86 -112 72 -121 q 108 -89 100 -103 q 118 -59 115 -75 q 121 -28 121 -43 l 121 286 z "},"|":{"ha":261,"x_min":67,"x_max":197,"o":"m 67 1133 l 197 1133 l 197 -222 l 67 -222 l 67 1133 z "},"{":{"ha":418,"x_min":8,"x_max":367,"o":"m 297 758 q 298 716 297 738 q 299 674 299 694 q 291 610 299 646 q 267 542 283 574 q 223 488 250 510 q 158 465 196 465 q 218 429 192 453 q 262 376 244 406 q 288 312 279 346 q 297 244 297 278 l 297 -28 q 301 -59 297 -43 q 313 -89 304 -75 q 334 -112 321 -103 q 367 -121 347 -121 l 367 -229 q 288 -213 325 -229 q 224 -170 251 -197 q 182 -106 197 -143 q 167 -28 167 -69 l 167 269 q 160 297 165 278 q 140 337 156 315 q 92 376 124 358 q 8 401 61 394 l 8 538 q 94 558 63 543 q 142 591 126 574 q 162 623 157 608 q 167 640 167 638 l 167 946 q 182 1024 167 988 q 224 1088 197 1061 q 288 1131 251 1115 q 367 1147 325 1147 l 367 1039 q 332 1030 346 1039 q 310 1007 318 1021 q 300 976 303 993 q 297 946 297 960 l 297 758 z "},"°":{"ha":536,"x_min":47,"x_max":489,"o":"m 268 926 q 354 909 314 926 q 424 863 394 892 q 472 793 454 833 q 489 707 489 753 q 472 621 489 661 q 424 551 454 581 q 354 503 394 521 q 268 486 314 486 q 182 503 222 486 q 112 551 142 521 q 65 621 82 581 q 47 707 47 661 q 65 793 47 753 q 112 863 82 833 q 182 909 142 892 q 268 926 222 926 m 268 611 q 336 639 308 611 q 364 707 364 667 q 336 774 364 746 q 268 801 308 801 q 200 774 228 801 q 172 707 172 746 q 200 639 172 667 q 268 611 228 611 z "},"¢":{"ha":654,"x_min":31,"x_max":628,"o":"m 296 0 l 296 101 q 190 147 239 117 q 106 221 142 178 q 51 318 71 264 q 31 433 31 372 q 51 549 31 493 q 108 648 72 604 q 192 722 143 692 q 296 764 240 753 l 296 900 l 422 900 l 422 767 q 535 726 482 758 q 628 646 589 693 l 503 550 q 422 603 458 590 l 422 261 q 470 285 447 269 q 511 324 493 300 l 621 214 q 533 140 585 169 q 422 99 482 110 l 422 0 l 296 0 m 256 300 q 275 283 265 290 q 296 269 285 276 l 296 592 q 233 522 256 564 q 210 425 210 479 q 256 300 210 350 z "},"£":{"ha":769,"x_min":36,"x_max":785,"o":"m 513 171 q 560 180 535 171 q 609 201 586 189 q 650 226 632 214 q 678 246 668 239 l 785 110 q 699 54 744 79 q 610 17 660 33 q 513 0 561 0 l 76 0 l 83 92 q 88 144 85 96 q 97 264 90 193 l 106 360 l 36 360 l 36 533 l 115 533 l 115 540 q 115 574 115 556 q 117 608 115 593 q 118 643 117 626 q 149 817 118 751 q 224 917 179 882 q 320 964 269 953 q 413 975 371 975 q 544 946 489 975 q 637 874 600 917 q 693 783 674 831 q 719 701 713 736 l 549 668 q 541 695 547 674 q 520 741 535 717 q 479 785 506 765 q 413 804 453 804 q 353 794 378 804 q 315 756 329 785 q 293 674 300 726 q 286 533 286 621 l 532 533 l 532 360 l 275 360 l 261 171 l 513 171 l 513 171 z "},"Æ":{"ha":1358,"x_min":36,"x_max":1292,"o":"m 676 211 l 353 211 l 265 0 l 36 0 l 447 985 l 1292 985 l 1292 793 l 888 793 l 888 615 l 1243 615 l 1243 424 l 888 424 l 888 190 l 1292 190 l 1292 0 l 676 0 l 676 211 m 676 403 l 676 793 l 599 793 l 433 403 l 676 403 z "},"≠":{"ha":731,"x_min":67,"x_max":658,"o":"m 67 625 l 658 625 l 658 493 l 67 493 l 67 625 m 67 338 l 658 338 l 658 206 l 67 206 l 67 338 z "},"´":{"ha":339,"x_min":83,"x_max":313,"o":"m 313 986 l 225 738 l 83 738 l 103 986 l 313 986 z "},"™":{"ha":946,"x_min":53,"x_max":879,"o":"m 53 985 l 368 985 l 368 888 l 263 888 l 263 556 l 158 556 l 158 888 l 53 888 l 53 985 m 783 985 l 879 985 l 879 556 l 775 556 l 775 807 q 732 749 753 779 q 690 690 711 718 l 611 690 l 524 806 l 524 556 l 418 556 l 418 985 l 515 985 l 650 800 l 783 985 z "},"©":{"ha":1179,"x_min":101,"x_max":1078,"o":"m 672 321 q 742 375 706 336 l 814 307 q 717 222 772 251 q 599 193 661 193 q 502 213 549 193 q 421 270 456 233 q 365 357 386 307 q 344 465 344 407 q 365 572 344 522 q 422 657 386 621 q 503 714 457 693 q 603 735 550 735 q 699 716 654 735 q 785 656 743 697 l 721 576 q 662 615 689 604 q 603 625 635 625 q 542 611 569 625 q 496 575 515 597 q 466 524 476 553 q 456 465 456 494 q 468 399 456 428 q 501 349 481 369 q 549 317 522 328 q 603 306 575 306 q 672 321 642 306 m 589 953 q 779 915 690 953 q 935 810 868 876 q 1040 654 1001 743 q 1078 464 1078 565 q 1040 274 1078 363 q 935 118 1001 185 q 779 13 868 51 q 589 -25 690 -25 q 400 13 489 -25 q 244 118 311 51 q 140 274 178 185 q 101 464 101 363 q 140 654 101 565 q 244 810 178 743 q 400 915 311 876 q 589 953 489 953 m 589 94 q 733 124 665 94 q 850 203 800 153 q 929 320 900 253 q 958 464 958 388 q 929 608 958 540 q 850 725 900 675 q 733 804 800 775 q 589 833 665 833 q 445 804 513 833 q 328 725 378 775 q 249 608 278 675 q 219 464 219 540 q 249 320 219 388 q 328 203 278 253 q 445 124 378 153 q 589 94 513 94 z "},"®":{"ha":1181,"x_min":101,"x_max":1079,"o":"m 729 447 q 710 435 719 440 q 690 424 701 429 l 840 232 l 733 201 l 571 413 l 521 413 l 521 201 l 408 201 l 408 726 l 635 726 q 694 715 664 726 q 719 700 708 708 q 742 682 731 692 q 774 632 763 661 q 786 569 786 603 q 779 522 786 547 q 770 501 775 511 q 758 482 765 492 q 729 447 749 464 m 658 532 q 674 569 674 550 q 658 608 674 590 q 621 624 643 624 l 521 624 l 521 515 l 621 515 q 658 532 642 515 m 590 953 q 779 915 690 953 q 935 810 868 876 q 1040 654 1001 743 q 1079 464 1079 565 q 1040 274 1079 363 q 935 118 1001 185 q 779 13 868 51 q 590 -25 690 -25 q 400 13 489 -25 q 244 118 311 51 q 140 274 178 185 q 101 464 101 363 q 140 654 101 565 q 244 810 178 743 q 400 915 311 876 q 590 953 489 953 m 590 94 q 734 124 667 94 q 851 203 801 153 q 931 320 901 253 q 960 464 960 388 q 931 608 960 540 q 851 725 901 675 q 734 804 801 775 q 590 833 667 833 q 447 804 514 833 q 329 725 379 775 q 250 608 279 675 q 221 464 221 540 q 250 320 221 388 q 329 203 279 253 q 447 124 379 153 q 590 94 514 94 z "},"¶":{"ha":896,"x_min":35,"x_max":857,"o":"m 857 985 l 857 853 l 676 853 l 676 -217 l 540 -217 l 540 853 l 428 853 l 428 -217 l 292 -217 l 292 449 q 191 472 238 450 q 110 531 144 494 q 55 615 75 567 q 35 717 35 663 q 55 819 35 771 q 110 903 75 867 q 191 960 144 939 q 292 985 238 982 l 857 985 z "},"•":{"ha":519,"x_min":49,"x_max":472,"o":"m 110 235 q 49 383 49 294 q 110 532 49 472 q 260 593 174 593 q 410 532 349 593 q 472 383 472 471 q 410 235 472 294 q 260 176 349 176 q 110 235 172 176 z "},"‘":{"ha":340,"x_min":50,"x_max":311,"o":"m 311 606 l 164 606 l 50 982 l 265 982 l 311 606 z "},"’":{"ha":339,"x_min":50,"x_max":311,"o":"m 96 985 l 311 985 l 197 608 l 50 608 l 96 985 z "},"'":{"ha":304,"x_min":56,"x_max":258,"o":"m 56 985 l 258 985 l 214 610 l 78 610 l 56 985 z "},"¬":{"ha":776,"x_min":11,"x_max":710,"o":"m 710 190 l 578 190 l 578 468 l 11 468 l 11 600 l 710 600 l 710 190 z "},"¡":{"ha":328,"x_min":58,"x_max":271,"o":"m 164 497 q 89 528 119 497 q 58 603 58 558 q 89 678 58 647 q 164 708 119 708 q 240 678 208 708 q 271 603 271 647 q 240 528 271 558 q 164 497 208 497 m 249 413 l 265 -287 l 63 -287 l 78 413 l 249 413 z "},"¿":{"ha":596,"x_min":22,"x_max":546,"o":"m 399 497 q 323 528 354 497 q 292 603 292 558 q 323 678 292 647 q 399 708 354 708 q 474 678 443 708 q 504 603 504 647 q 474 528 504 558 q 399 497 443 497 m 363 -300 q 215 -275 279 -300 q 109 -208 151 -250 q 44 -108 67 -165 q 22 13 22 -51 q 181 264 22 169 q 224 289 203 278 q 263 315 246 300 q 293 353 281 331 q 310 413 306 375 l 476 413 l 476 382 q 463 301 476 335 q 425 238 450 267 q 365 186 400 210 q 283 136 329 163 q 231 83 250 117 q 213 10 213 49 q 226 -47 213 -21 q 262 -90 239 -72 q 316 -118 285 -108 q 382 -128 347 -128 q 430 -124 410 -128 q 464 -117 450 -121 q 490 -106 479 -111 l 546 -250 q 363 -300 464 -300 z "},"“":{"ha":619,"x_min":58,"x_max":574,"o":"m 574 606 l 440 606 l 326 982 l 528 982 l 574 606 m 306 606 l 172 606 l 58 982 l 260 982 l 306 606 z "},"”":{"ha":621,"x_min":58,"x_max":576,"o":"m 104 985 l 306 985 l 192 608 l 58 608 l 104 985 m 375 985 l 576 985 l 463 608 l 329 608 l 375 985 z "},"ä":{"ha":844,"x_min":44,"x_max":783,"o":"m 783 689 l 783 0 l 618 0 l 599 74 q 502 1 558 19 q 385 -17 446 -17 q 249 12 311 -17 q 142 90 188 40 q 70 205 96 139 q 44 346 44 271 q 70 487 44 421 q 142 602 96 553 q 249 680 188 651 q 385 708 311 708 q 507 688 451 708 q 599 621 563 667 l 618 689 l 783 689 m 592 343 q 577 434 592 397 q 538 494 563 471 q 481 527 514 517 q 411 538 449 538 q 341 522 374 538 q 283 481 308 507 q 244 420 258 456 q 231 346 231 385 q 244 271 231 306 q 283 210 258 236 q 341 169 308 185 q 411 154 374 154 q 538 201 486 154 q 592 343 590 247 m 600 985 q 675 954 644 985 q 706 879 706 924 q 675 803 706 835 q 600 772 644 772 q 524 803 556 772 q 493 879 493 835 q 524 954 493 924 q 600 985 556 985 m 264 985 q 339 954 308 985 q 369 879 369 924 q 339 803 369 835 q 264 772 308 772 q 188 803 219 772 q 157 879 157 835 q 188 954 157 924 q 264 985 219 985 z "},"Ä":{"ha":1088,"x_min":31,"x_max":1082,"o":"m 671 985 l 1082 0 l 854 0 l 765 211 l 347 211 l 260 0 l 31 0 l 442 985 l 671 985 m 686 403 l 557 713 l 428 403 l 686 403 m 715 1246 q 790 1215 760 1246 q 821 1140 821 1185 q 790 1065 821 1096 q 715 1033 760 1033 q 640 1065 671 1033 q 608 1140 608 1096 q 640 1215 608 1185 q 715 1246 671 1246 m 379 1246 q 454 1215 424 1246 q 485 1140 485 1185 q 454 1065 485 1096 q 379 1033 424 1033 q 303 1065 335 1033 q 272 1140 272 1096 q 303 1215 272 1185 q 379 1246 335 1246 z "},"ﬂ":{"ha":810,"x_min":35,"x_max":750,"o":"m 558 860 q 520 865 539 864 q 485 867 501 867 q 363 836 410 867 q 315 761 315 806 l 315 689 l 458 689 l 458 518 l 315 518 l 315 0 l 125 0 l 125 518 l 35 518 l 35 619 l 125 689 l 125 751 q 151 872 125 821 q 224 957 176 924 q 339 1007 271 990 q 492 1024 407 1024 q 750 994 608 1024 l 750 0 l 558 0 l 558 860 z "},"ﬃ":{"ha":1250,"x_min":44,"x_max":1199,"o":"m 1199 0 l 1007 0 l 1007 518 l 788 518 l 788 0 l 597 0 l 597 518 l 325 518 l 325 0 l 135 0 l 135 518 l 44 518 l 44 619 l 135 689 l 135 747 q 156 872 135 819 q 214 958 178 924 q 297 1008 250 992 q 397 1024 344 1024 q 461 1018 429 1024 q 525 1001 493 1013 l 510 861 l 464 868 q 444 870 453 869 q 426 871 435 871 q 349 845 374 871 q 325 771 325 819 l 325 689 l 597 689 l 597 750 q 623 876 597 824 q 692 960 649 928 q 790 1008 735 993 q 903 1024 844 1024 q 1038 1004 972 1024 q 1153 950 1104 985 l 1101 825 q 1012 852 1061 840 q 917 864 963 864 q 826 844 864 864 q 788 774 788 824 l 788 689 l 1199 689 l 1199 0 z "},"ﬁ":{"ha":760,"x_min":33,"x_max":711,"o":"m 711 0 l 519 0 l 519 518 l 314 518 l 314 0 l 124 0 l 124 518 l 33 518 l 33 619 l 124 689 l 124 749 q 149 874 124 822 q 218 959 175 926 q 316 1007 261 992 q 429 1022 371 1022 q 565 1003 499 1022 q 679 949 631 983 l 628 824 q 538 851 588 839 q 443 863 489 863 q 352 842 390 863 q 314 772 314 822 l 314 689 l 711 689 l 711 0 z "},"ﬄ":{"ha":1288,"x_min":44,"x_max":1226,"o":"m 1035 856 q 997 861 1015 860 q 961 863 978 863 q 839 832 886 863 q 792 757 792 801 l 792 689 l 935 689 l 935 518 l 792 518 l 792 0 l 601 0 l 601 518 l 325 518 l 325 0 l 135 0 l 135 518 l 44 518 l 44 619 l 135 689 l 135 746 q 156 870 135 818 q 214 956 178 922 q 297 1006 250 990 q 397 1022 344 1022 q 461 1017 429 1022 q 525 1000 493 1011 l 510 860 l 464 867 q 444 869 453 868 q 426 869 435 869 q 350 844 374 869 q 325 769 326 818 l 325 689 l 601 689 l 601 747 q 627 868 601 817 q 700 953 653 919 q 815 1003 747 986 q 968 1019 883 1019 q 1226 990 1085 1019 l 1226 0 l 1035 0 l 1035 856 z "},"ﬀ":{"ha":1022,"x_min":42,"x_max":989,"o":"m 599 747 q 620 872 599 819 q 678 958 642 924 q 761 1008 714 992 q 861 1024 808 1024 q 925 1018 893 1024 q 989 1001 957 1013 l 974 861 l 928 868 q 908 870 917 869 q 890 871 899 871 q 813 845 838 871 q 789 771 789 819 l 789 689 l 974 689 l 974 518 l 789 518 l 789 0 l 599 0 l 599 518 l 322 518 l 322 0 l 132 0 l 132 518 l 42 518 l 42 619 l 132 689 l 132 747 q 153 872 132 819 q 211 958 175 924 q 294 1008 247 992 q 394 1024 342 1024 q 458 1018 426 1024 q 522 1001 490 1013 l 507 861 l 461 868 q 441 870 450 869 q 424 871 432 871 q 347 845 371 871 q 322 771 322 819 l 322 689 l 599 689 l 599 747 l 599 747 z "},"˚":{"ha":568,"x_min":142,"x_max":472,"o":"m 307 1113 q 372 1099 342 1113 q 424 1064 401 1086 q 459 1012 446 1042 q 472 947 472 982 q 459 883 472 913 q 424 831 446 853 q 372 795 401 808 q 307 782 342 782 q 242 795 272 782 q 189 831 211 808 q 154 883 167 853 q 142 947 142 913 q 154 1012 142 982 q 189 1064 167 1042 q 242 1099 211 1086 q 307 1113 272 1113 m 307 893 q 344 909 329 893 q 360 947 360 925 q 344 985 360 969 q 307 1000 329 1000 q 268 985 283 1000 q 253 947 253 969 q 268 909 253 925 q 307 893 283 893 z "},"˜":{"ha":1157,"x_min":318,"x_max":896,"o":"m 708 1160 q 746 1167 726 1160 q 783 1186 765 1175 q 815 1208 801 1197 q 833 1228 828 1219 l 896 1153 q 877 1128 893 1149 q 836 1084 861 1107 q 778 1042 811 1061 q 708 1024 746 1024 q 644 1040 669 1024 q 599 1077 619 1057 q 558 1114 578 1097 q 510 1131 538 1131 q 443 1111 475 1131 q 390 1064 411 1092 q 348 1096 363 1085 q 326 1113 333 1107 q 318 1121 318 1118 q 334 1150 321 1126 q 371 1200 347 1174 q 429 1247 394 1226 q 510 1268 464 1268 q 581 1251 551 1268 q 633 1214 611 1235 q 673 1176 656 1193 q 708 1160 690 1160 z "},"ˆ":{"ha":1157,"x_min":353,"x_max":864,"o":"m 521 1024 l 353 1024 l 521 1211 l 703 1211 l 864 1024 l 694 1024 l 611 1146 l 521 1024 z "},"ˇ":{"ha":1157,"x_min":353,"x_max":864,"o":"m 696 1210 l 864 1210 l 696 1022 l 514 1022 l 353 1210 l 522 1210 l 606 1088 l 696 1210 z "},"˙":{"ha":479,"x_min":139,"x_max":351,"o":"m 246 1042 q 170 1072 201 1042 q 139 1147 139 1103 q 170 1223 139 1192 q 246 1254 201 1254 q 321 1223 290 1254 q 351 1147 351 1192 q 321 1072 351 1103 q 246 1042 290 1042 z "},"˛":{"ha":413,"x_min":78,"x_max":335,"o":"m 261 -53 q 218 -106 240 -74 q 196 -171 196 -139 q 204 -195 196 -186 q 226 -209 213 -204 q 256 -215 240 -214 q 286 -217 271 -217 q 306 -216 297 -217 q 324 -215 314 -215 l 335 -285 q 310 -292 324 -289 q 242 -299 282 -299 q 179 -290 208 -299 q 127 -266 150 -282 q 91 -226 104 -250 q 78 -174 78 -203 q 95 -109 78 -137 q 136 -53 113 -81 l 261 -53 z "},"√":{"ha":915,"x_min":-7,"x_max":960,"o":"m 247 501 l 411 153 l 818 1014 l 960 1014 l 483 0 l 339 0 l 175 349 l 111 210 l -7 265 l 104 500 l 247 501 z "},"˝":{"ha":678,"x_min":83,"x_max":610,"o":"m 313 986 l 225 738 l 83 738 l 103 986 l 313 986 m 610 986 l 522 738 l 381 738 l 400 986 l 610 986 z "},"Å":{"ha":1113,"x_min":31,"x_max":1082,"o":"m 556 1204 q 620 1191 590 1204 q 672 1156 650 1178 q 708 1103 694 1133 q 721 1039 721 1074 q 713 986 721 1011 q 689 940 704 961 l 1082 0 l 854 0 l 765 211 l 347 211 l 260 0 l 31 0 l 422 939 q 390 1039 390 982 q 403 1103 390 1074 q 438 1156 415 1133 q 490 1191 460 1178 q 556 1204 521 1204 m 686 403 l 557 713 l 428 403 l 686 403 m 556 985 q 593 1001 578 985 q 608 1039 608 1017 q 593 1076 608 1061 q 556 1092 578 1092 q 517 1076 532 1092 q 501 1039 501 1061 q 517 1001 501 1017 q 556 985 532 985 z "},"É":{"ha":749,"x_min":67,"x_max":682,"o":"m 67 985 l 682 985 l 682 793 l 278 793 l 278 615 l 633 615 l 633 424 l 278 424 l 278 190 l 682 190 l 682 0 l 67 0 l 67 985 m 489 1299 l 401 1050 l 260 1050 l 279 1299 l 489 1299 z "},"Ñ":{"ha":1014,"x_min":65,"x_max":949,"o":"m 739 985 l 949 985 l 949 0 l 749 0 l 275 643 l 275 0 l 65 0 l 65 985 l 263 985 l 739 338 l 739 985 m 608 1186 q 646 1194 626 1186 q 683 1213 665 1201 q 715 1235 701 1224 q 733 1254 728 1246 l 796 1179 q 777 1154 793 1175 q 736 1110 761 1133 q 678 1069 711 1088 q 608 1050 646 1050 q 544 1067 569 1050 q 499 1103 519 1083 q 458 1140 478 1124 q 410 1157 438 1157 q 343 1138 375 1157 q 290 1090 311 1118 q 248 1122 263 1111 q 226 1139 233 1133 q 218 1147 218 1144 q 234 1176 221 1153 q 271 1226 247 1200 q 329 1274 294 1253 q 410 1294 364 1294 q 481 1278 451 1294 q 533 1240 511 1261 q 573 1203 556 1219 q 608 1186 590 1186 z "},"á":{"ha":844,"x_min":44,"x_max":783,"o":"m 783 689 l 783 0 l 618 0 l 599 74 q 502 1 558 19 q 385 -17 446 -17 q 249 12 311 -17 q 142 90 188 40 q 70 205 96 139 q 44 346 44 271 q 70 487 44 421 q 142 602 96 553 q 249 680 188 651 q 385 708 311 708 q 507 688 451 708 q 599 621 563 667 l 618 689 l 783 689 m 592 343 q 577 434 592 397 q 538 494 563 471 q 481 527 514 517 q 411 538 449 538 q 341 522 374 538 q 283 481 308 507 q 244 420 258 456 q 231 346 231 385 q 244 271 231 306 q 283 210 258 236 q 341 169 308 185 q 411 154 374 154 q 538 201 486 154 q 592 343 590 247 m 546 986 l 458 738 l 317 738 l 336 986 l 546 986 z "},"à":{"ha":844,"x_min":44,"x_max":783,"o":"m 783 689 l 783 0 l 618 0 l 599 74 q 502 1 558 19 q 385 -17 446 -17 q 249 12 311 -17 q 142 90 188 40 q 70 205 96 139 q 44 346 44 271 q 70 487 44 421 q 142 602 96 553 q 249 680 188 651 q 385 708 311 708 q 507 688 451 708 q 599 621 563 667 l 618 689 l 783 689 m 592 343 q 577 434 592 397 q 538 494 563 471 q 481 527 514 517 q 411 538 449 538 q 341 522 374 538 q 283 481 308 507 q 244 420 258 456 q 231 346 231 385 q 244 271 231 306 q 283 210 258 236 q 341 169 308 185 q 411 154 374 154 q 538 201 486 154 q 592 343 590 247 m 460 986 l 479 738 l 338 738 l 250 986 l 460 986 z "},"â":{"ha":844,"x_min":44,"x_max":783,"o":"m 783 689 l 783 0 l 618 0 l 599 74 q 502 1 558 19 q 385 -17 446 -17 q 249 12 311 -17 q 142 90 188 40 q 70 205 96 139 q 44 346 44 271 q 70 487 44 421 q 142 602 96 553 q 249 680 188 651 q 385 708 311 708 q 507 688 451 708 q 599 621 563 667 l 618 689 l 783 689 m 592 343 q 577 434 592 397 q 538 494 563 471 q 481 527 514 517 q 411 538 449 538 q 341 522 374 538 q 283 481 308 507 q 244 420 258 456 q 231 346 231 385 q 244 271 231 306 q 283 210 258 236 q 341 169 308 185 q 411 154 374 154 q 538 201 486 154 q 592 343 590 247 m 347 799 l 179 799 l 347 986 l 529 986 l 690 799 l 521 799 l 438 921 l 347 799 z "},"ã":{"ha":844,"x_min":44,"x_max":783,"o":"m 783 689 l 783 0 l 618 0 l 599 74 q 502 1 558 19 q 385 -17 446 -17 q 249 12 311 -17 q 142 90 188 40 q 70 205 96 139 q 44 346 44 271 q 70 487 44 421 q 142 602 96 553 q 249 680 188 651 q 385 708 311 708 q 507 688 451 708 q 599 621 563 667 l 618 689 l 783 689 m 592 343 q 577 434 592 397 q 538 494 563 471 q 481 527 514 517 q 411 538 449 538 q 341 522 374 538 q 283 481 308 507 q 244 420 258 456 q 231 346 231 385 q 244 271 231 306 q 283 210 258 236 q 341 169 308 185 q 411 154 374 154 q 538 201 486 154 q 592 343 590 247 m 533 915 q 571 923 551 915 q 608 942 590 931 q 640 964 626 953 q 658 983 653 975 l 721 908 q 702 883 718 904 q 661 840 686 863 q 603 798 636 817 q 533 779 571 779 q 469 796 494 779 q 424 833 444 813 q 383 869 403 853 q 335 886 363 886 q 268 867 300 886 q 215 819 236 847 q 173 851 188 840 q 151 868 158 863 q 143 876 143 874 q 159 906 146 882 q 196 956 172 929 q 254 1003 219 982 q 335 1024 289 1024 q 406 1007 376 1024 q 458 969 436 990 q 498 932 481 949 q 533 915 515 915 z "},"å":{"ha":844,"x_min":44,"x_max":783,"o":"m 783 689 l 783 0 l 618 0 l 599 74 q 502 1 558 19 q 385 -17 446 -17 q 249 12 311 -17 q 142 90 188 40 q 70 205 96 139 q 44 346 44 271 q 70 487 44 421 q 142 602 96 553 q 249 680 188 651 q 385 708 311 708 q 507 688 451 708 q 599 621 563 667 l 618 689 l 783 689 m 592 343 q 577 434 592 397 q 538 494 563 471 q 481 527 514 517 q 411 538 449 538 q 341 522 374 538 q 283 481 308 507 q 244 420 258 456 q 231 346 231 385 q 244 271 231 306 q 283 210 258 236 q 341 169 308 185 q 411 154 374 154 q 538 201 486 154 q 592 343 590 247 m 433 1113 q 498 1099 468 1113 q 550 1064 528 1086 q 585 1012 572 1042 q 599 947 599 982 q 585 883 599 913 q 550 831 572 853 q 498 795 528 808 q 433 782 468 782 q 368 795 399 782 q 315 831 338 808 q 281 883 293 853 q 268 947 268 913 q 281 1012 268 982 q 315 1064 293 1042 q 368 1099 338 1086 q 433 1113 399 1113 m 433 893 q 471 909 456 893 q 486 947 486 925 q 471 985 486 969 q 433 1000 456 1000 q 394 985 410 1000 q 379 947 379 969 q 394 909 379 925 q 433 893 410 893 z "},"é":{"ha":826,"x_min":43,"x_max":750,"o":"m 403 708 q 544 677 481 708 q 654 595 608 646 q 725 478 700 544 q 750 343 750 413 q 739 254 750 301 l 247 254 q 326 174 275 207 q 438 142 378 142 q 542 151 497 142 q 628 176 588 161 l 692 58 q 574 3 640 22 q 433 -17 508 -17 q 281 12 351 -17 q 157 89 210 40 q 74 204 104 138 q 43 346 43 271 q 71 485 43 419 q 148 601 99 551 q 263 679 197 650 q 403 708 328 708 m 560 403 q 500 500 543 463 q 403 538 457 538 q 302 500 347 538 q 240 403 257 463 l 560 403 m 528 986 l 440 738 l 299 738 l 318 986 l 528 986 z "},"è":{"ha":826,"x_min":43,"x_max":750,"o":"m 403 708 q 544 677 481 708 q 654 595 608 646 q 725 478 700 544 q 750 343 750 413 q 739 254 750 301 l 247 254 q 326 174 275 207 q 438 142 378 142 q 542 151 497 142 q 628 176 588 161 l 692 58 q 574 3 640 22 q 433 -17 508 -17 q 281 12 351 -17 q 157 89 210 40 q 74 204 104 138 q 43 346 43 271 q 71 485 43 419 q 148 601 99 551 q 263 679 197 650 q 403 708 328 708 m 560 403 q 500 500 543 463 q 403 538 457 538 q 302 500 347 538 q 240 403 257 463 l 560 403 m 508 986 l 528 738 l 386 738 l 299 986 l 508 986 z "},"ê":{"ha":826,"x_min":43,"x_max":750,"o":"m 403 708 q 544 677 481 708 q 654 595 608 646 q 725 478 700 544 q 750 343 750 413 q 739 254 750 301 l 247 254 q 326 174 275 207 q 438 142 378 142 q 542 151 497 142 q 628 176 588 161 l 692 58 q 574 3 640 22 q 433 -17 508 -17 q 281 12 351 -17 q 157 89 210 40 q 74 204 104 138 q 43 346 43 271 q 71 485 43 419 q 148 601 99 551 q 263 679 197 650 q 403 708 328 708 m 560 403 q 500 500 543 463 q 403 538 457 538 q 302 500 347 538 q 240 403 257 463 l 560 403 m 326 796 l 158 796 l 326 983 l 508 983 l 669 796 l 500 796 l 417 918 l 326 796 z "},"ë":{"ha":826,"x_min":43,"x_max":750,"o":"m 403 708 q 544 677 481 708 q 654 595 608 646 q 725 478 700 544 q 750 343 750 413 q 739 254 750 301 l 247 254 q 326 174 275 207 q 438 142 378 142 q 542 151 497 142 q 628 176 588 161 l 692 58 q 574 3 640 22 q 433 -17 508 -17 q 281 12 351 -17 q 157 89 210 40 q 74 204 104 138 q 43 346 43 271 q 71 485 43 419 q 148 601 99 551 q 263 679 197 650 q 403 708 328 708 m 560 403 q 500 500 543 463 q 403 538 457 538 q 302 500 347 538 q 240 403 257 463 l 560 403 m 582 985 q 657 954 626 985 q 688 879 688 924 q 657 803 688 835 q 582 772 626 772 q 506 803 538 772 q 475 879 475 835 q 506 954 475 924 q 582 985 538 985 m 246 985 q 321 954 290 985 q 351 879 351 924 q 321 803 351 835 q 246 772 290 772 q 170 803 201 772 q 139 879 139 835 q 170 954 139 924 q 246 985 201 985 z "},"í":{"ha":364,"x_min":86,"x_max":342,"o":"m 278 0 l 86 0 l 86 689 l 278 689 l 278 0 m 342 986 l 254 738 l 113 738 l 132 986 l 342 986 z "},"ì":{"ha":364,"x_min":24,"x_max":278,"o":"m 278 0 l 86 0 l 86 689 l 278 689 l 278 0 m 233 986 l 253 738 l 111 738 l 24 986 l 233 986 z "},"î":{"ha":364,"x_min":-74,"x_max":438,"o":"m 278 0 l 86 0 l 86 689 l 278 689 l 278 0 m 94 796 l -74 796 l 94 983 l 276 983 l 438 796 l 268 796 l 185 918 l 94 796 z "},"ï":{"ha":364,"x_min":-92,"x_max":457,"o":"m 278 0 l 86 0 l 86 689 l 278 689 l 278 0 m 351 983 q 426 953 396 983 q 457 878 457 922 q 426 802 457 833 q 351 771 396 771 q 276 802 307 771 q 244 878 244 833 q 276 953 244 922 q 351 983 307 983 m 15 983 q 90 953 60 983 q 121 878 121 922 q 90 802 121 833 q 15 771 60 771 q -60 802 -29 771 q -92 878 -92 833 q -60 953 -92 922 q 15 983 -29 983 z "},"ñ":{"ha":751,"x_min":64,"x_max":694,"o":"m 421 689 q 507 678 460 689 q 596 636 554 667 q 666 551 638 606 q 694 411 694 497 l 694 0 l 501 0 l 501 404 q 491 458 501 436 q 463 494 481 481 q 424 513 446 507 q 379 519 401 519 q 340 513 361 519 q 299 493 318 507 q 268 457 281 479 q 256 404 256 435 l 256 0 l 64 0 l 64 689 l 228 689 l 256 636 q 331 674 289 660 q 421 689 372 689 m 478 915 q 515 923 496 915 q 553 942 535 931 q 584 964 571 953 q 603 983 597 975 l 665 908 q 647 883 663 904 q 606 840 631 863 q 548 798 581 817 q 478 779 515 779 q 414 796 439 779 q 368 833 389 813 q 327 869 347 853 q 279 886 307 886 q 213 867 244 886 q 160 819 181 847 q 117 851 132 840 q 96 868 103 863 q 88 876 88 874 q 103 906 90 882 q 140 956 117 929 q 199 1003 164 982 q 279 1024 233 1024 q 351 1007 321 1024 q 403 969 381 990 q 442 932 425 949 q 478 915 460 915 z "},"ó":{"ha":804,"x_min":43,"x_max":761,"o":"m 403 708 q 542 680 476 708 q 656 602 607 651 q 733 487 704 553 q 761 346 761 421 q 733 205 761 271 q 656 90 704 139 q 542 12 607 40 q 403 -17 476 -17 q 263 12 328 -17 q 149 90 197 40 q 72 205 100 139 q 43 346 43 271 q 72 487 43 421 q 149 602 100 553 q 263 680 197 651 q 403 708 328 708 m 403 151 q 467 165 438 151 q 520 203 497 179 q 556 262 543 228 q 569 338 569 296 q 556 415 569 379 q 520 478 543 451 q 467 522 497 506 q 403 538 438 538 q 338 522 368 538 q 284 478 307 506 q 248 415 261 451 q 235 338 235 379 q 248 262 235 296 q 284 203 261 228 q 338 165 307 179 q 403 151 368 151 m 517 986 l 429 738 l 288 738 l 307 986 l 517 986 z "},"ò":{"ha":804,"x_min":43,"x_max":761,"o":"m 403 708 q 542 680 476 708 q 656 602 607 651 q 733 487 704 553 q 761 346 761 421 q 733 205 761 271 q 656 90 704 139 q 542 12 607 40 q 403 -17 476 -17 q 263 12 328 -17 q 149 90 197 40 q 72 205 100 139 q 43 346 43 271 q 72 487 43 421 q 149 602 100 553 q 263 680 197 651 q 403 708 328 708 m 403 151 q 467 165 438 151 q 520 203 497 179 q 556 262 543 228 q 569 338 569 296 q 556 415 569 379 q 520 478 543 451 q 467 522 497 506 q 403 538 438 538 q 338 522 368 538 q 284 478 307 506 q 248 415 261 451 q 235 338 235 379 q 248 262 235 296 q 284 203 261 228 q 338 165 307 179 q 403 151 368 151 m 497 986 l 517 738 l 375 738 l 288 986 l 497 986 z "},"ô":{"ha":804,"x_min":43,"x_max":761,"o":"m 403 708 q 542 680 476 708 q 656 602 607 651 q 733 487 704 553 q 761 346 761 421 q 733 205 761 271 q 656 90 704 139 q 542 12 607 40 q 403 -17 476 -17 q 263 12 328 -17 q 149 90 197 40 q 72 205 100 139 q 43 346 43 271 q 72 487 43 421 q 149 602 100 553 q 263 680 197 651 q 403 708 328 708 m 403 151 q 467 165 438 151 q 520 203 497 179 q 556 262 543 228 q 569 338 569 296 q 556 415 569 379 q 520 478 543 451 q 467 522 497 506 q 403 538 438 538 q 338 522 368 538 q 284 478 307 506 q 248 415 261 451 q 235 338 235 379 q 248 262 235 296 q 284 203 261 228 q 338 165 307 179 q 403 151 368 151 m 315 797 l 147 797 l 315 985 l 497 985 l 658 797 l 489 797 l 406 919 l 315 797 z "},"õ":{"ha":804,"x_min":43,"x_max":761,"o":"m 403 708 q 542 680 476 708 q 656 602 607 651 q 733 487 704 553 q 761 346 761 421 q 733 205 761 271 q 656 90 704 139 q 542 12 607 40 q 403 -17 476 -17 q 263 12 328 -17 q 149 90 197 40 q 72 205 100 139 q 43 346 43 271 q 72 487 43 421 q 149 602 100 553 q 263 680 197 651 q 403 708 328 708 m 403 151 q 467 165 438 151 q 520 203 497 179 q 556 262 543 228 q 569 338 569 296 q 556 415 569 379 q 520 478 543 451 q 467 522 497 506 q 403 538 438 538 q 338 522 368 538 q 284 478 307 506 q 248 415 261 451 q 235 338 235 379 q 248 262 235 296 q 284 203 261 228 q 338 165 307 179 q 403 151 368 151 m 504 915 q 542 923 522 915 q 579 942 561 931 q 610 964 597 953 q 629 983 624 975 l 692 908 q 673 883 689 904 q 632 840 657 863 q 574 798 607 817 q 504 779 542 779 q 440 796 465 779 q 394 833 415 813 q 353 869 374 853 q 306 886 333 886 q 239 867 271 886 q 186 819 207 847 q 144 851 158 840 q 122 868 129 863 q 114 876 114 874 q 130 906 117 882 q 167 956 143 929 q 225 1003 190 982 q 306 1024 260 1024 q 377 1007 347 1024 q 429 969 407 990 q 469 932 451 949 q 504 915 486 915 z "},"ú":{"ha":754,"x_min":58,"x_max":690,"o":"m 499 689 l 690 689 l 690 0 l 526 0 l 499 53 q 423 15 465 29 q 332 0 381 0 q 247 11 294 0 q 157 53 199 22 q 87 138 115 83 q 58 278 58 192 l 58 689 l 251 689 l 251 285 q 262 231 251 253 q 290 195 272 208 q 329 176 307 182 q 375 169 351 169 q 415 176 393 169 q 455 196 436 182 q 486 232 474 210 q 499 285 499 254 l 499 689 m 492 986 l 404 738 l 263 738 l 282 986 l 492 986 z "},"ù":{"ha":754,"x_min":58,"x_max":690,"o":"m 499 689 l 690 689 l 690 0 l 526 0 l 499 53 q 423 15 465 29 q 332 0 381 0 q 247 11 294 0 q 157 53 199 22 q 87 138 115 83 q 58 278 58 192 l 58 689 l 251 689 l 251 285 q 262 231 251 253 q 290 195 272 208 q 329 176 307 182 q 375 169 351 169 q 415 176 393 169 q 455 196 436 182 q 486 232 474 210 q 499 285 499 254 l 499 689 m 472 986 l 492 738 l 350 738 l 263 986 l 472 986 z "},"û":{"ha":754,"x_min":58,"x_max":690,"o":"m 499 689 l 690 689 l 690 0 l 526 0 l 499 53 q 423 15 465 29 q 332 0 381 0 q 247 11 294 0 q 157 53 199 22 q 87 138 115 83 q 58 278 58 192 l 58 689 l 251 689 l 251 285 q 262 231 251 253 q 290 195 272 208 q 329 176 307 182 q 375 169 351 169 q 415 176 393 169 q 455 196 436 182 q 486 232 474 210 q 499 285 499 254 l 499 689 m 290 796 l 122 796 l 290 983 l 472 983 l 633 796 l 464 796 l 381 918 l 290 796 z "},"À":{"ha":1113,"x_min":31,"x_max":1082,"o":"m 671 985 l 1082 0 l 854 0 l 765 211 l 347 211 l 260 0 l 31 0 l 442 985 l 671 985 m 686 403 l 557 713 l 428 403 l 686 403 m 613 1299 l 632 1050 l 490 1050 l 403 1299 l 613 1299 z "},"Ã":{"ha":1113,"x_min":31,"x_max":1082,"o":"m 671 985 l 1082 0 l 854 0 l 765 211 l 347 211 l 260 0 l 31 0 l 442 985 l 671 985 m 686 403 l 557 713 l 428 403 l 686 403 m 658 1186 q 696 1194 676 1186 q 733 1213 715 1201 q 765 1235 751 1224 q 783 1254 778 1246 l 846 1179 q 827 1154 843 1175 q 786 1110 811 1133 q 728 1069 761 1088 q 658 1050 696 1050 q 594 1067 619 1050 q 549 1103 569 1083 q 508 1140 528 1124 q 460 1157 488 1157 q 393 1138 425 1157 q 340 1090 361 1118 q 298 1122 313 1111 q 276 1139 283 1133 q 268 1147 268 1144 q 284 1176 271 1153 q 321 1226 297 1200 q 379 1274 344 1253 q 460 1294 414 1294 q 531 1278 501 1294 q 583 1240 561 1261 q 623 1203 606 1219 q 658 1186 640 1186 z "},"Õ":{"ha":1063,"x_min":46,"x_max":1017,"o":"m 531 999 q 719 958 631 999 q 874 849 808 918 q 978 688 940 779 q 1017 492 1017 596 q 978 296 1017 389 q 874 133 940 203 q 719 23 808 64 q 531 -18 631 -18 q 342 23 431 -18 q 188 133 253 64 q 84 296 122 203 q 46 492 46 389 q 84 688 46 596 q 188 849 122 779 q 342 958 253 918 q 531 999 431 999 m 531 192 q 638 215 588 192 q 725 280 688 239 q 784 375 763 321 q 806 492 806 429 q 784 609 806 554 q 725 705 763 664 q 638 769 688 746 q 531 793 588 793 q 424 769 474 793 q 336 705 374 746 q 277 609 299 664 q 256 492 256 554 q 277 375 256 429 q 336 280 299 321 q 424 215 374 239 q 531 192 474 192 m 633 1186 q 671 1194 651 1186 q 708 1213 690 1201 q 740 1235 726 1224 q 758 1254 753 1246 l 821 1179 q 802 1154 818 1175 q 761 1110 786 1133 q 703 1069 736 1088 q 633 1050 671 1050 q 569 1067 594 1050 q 524 1103 544 1083 q 483 1140 503 1124 q 435 1157 463 1157 q 368 1138 400 1157 q 315 1090 336 1118 q 273 1122 288 1111 q 251 1139 258 1133 q 243 1147 243 1144 q 259 1176 246 1153 q 296 1226 272 1200 q 354 1274 319 1253 q 435 1294 389 1294 q 506 1278 476 1294 q 558 1240 536 1261 q 598 1203 581 1219 q 633 1186 615 1186 z "},"Â":{"ha":1113,"x_min":31,"x_max":1082,"o":"m 671 985 l 1082 0 l 854 0 l 765 211 l 347 211 l 260 0 l 31 0 l 442 985 l 671 985 m 686 403 l 557 713 l 428 403 l 686 403 m 469 1050 l 301 1050 l 469 1238 l 651 1238 l 813 1050 l 643 1050 l 560 1172 l 469 1050 z "},"Ê":{"ha":749,"x_min":67,"x_max":682,"o":"m 67 985 l 682 985 l 682 793 l 278 793 l 278 615 l 633 615 l 633 424 l 278 424 l 278 190 l 682 190 l 682 0 l 67 0 l 67 985 m 288 1050 l 119 1050 l 288 1238 l 469 1238 l 631 1050 l 461 1050 l 378 1172 l 288 1050 z "},"Á":{"ha":1113,"x_min":31,"x_max":1082,"o":"m 671 985 l 1082 0 l 854 0 l 765 211 l 347 211 l 260 0 l 31 0 l 442 985 l 671 985 m 686 403 l 557 713 l 428 403 l 686 403 m 718 1299 l 631 1050 l 489 1050 l 508 1299 l 718 1299 z "},"Ë":{"ha":749,"x_min":67,"x_max":682,"o":"m 67 985 l 682 985 l 682 793 l 278 793 l 278 615 l 633 615 l 633 424 l 278 424 l 278 190 l 682 190 l 682 0 l 67 0 l 67 985 m 543 1263 q 618 1232 588 1263 q 649 1157 649 1201 q 618 1081 649 1113 q 543 1050 588 1050 q 467 1081 499 1050 q 436 1157 436 1113 q 467 1232 436 1201 q 543 1263 499 1263 m 207 1263 q 282 1232 251 1263 q 313 1157 313 1201 q 282 1081 313 1113 q 207 1050 251 1050 q 131 1081 163 1050 q 100 1157 100 1113 q 131 1232 100 1201 q 207 1263 163 1263 z "},"È":{"ha":749,"x_min":67,"x_max":682,"o":"m 67 985 l 682 985 l 682 793 l 278 793 l 278 615 l 633 615 l 633 424 l 278 424 l 278 190 l 682 190 l 682 0 l 67 0 l 67 985 m 469 1299 l 489 1050 l 347 1050 l 260 1299 l 469 1299 z "},"Í":{"ha":488,"x_min":65,"x_max":424,"o":"m 424 985 l 424 807 l 350 807 l 350 176 l 424 176 l 424 0 l 65 0 l 65 176 l 139 176 l 139 807 l 65 807 l 65 985 l 424 985 m 410 1299 l 322 1050 l 181 1050 l 200 1299 l 410 1299 z "},"Î":{"ha":488,"x_min":-11,"x_max":500,"o":"m 424 985 l 424 807 l 350 807 l 350 176 l 424 176 l 424 0 l 65 0 l 65 176 l 139 176 l 139 807 l 65 807 l 65 985 l 424 985 m 157 1050 l -11 1050 l 157 1238 l 339 1238 l 500 1050 l 331 1050 l 247 1172 l 157 1050 z "},"Ï":{"ha":488,"x_min":-26,"x_max":522,"o":"m 424 985 l 424 807 l 350 807 l 350 176 l 424 176 l 424 0 l 65 0 l 65 176 l 139 176 l 139 807 l 65 807 l 65 985 l 424 985 m 417 1263 q 492 1232 461 1263 q 522 1157 522 1201 q 492 1081 522 1113 q 417 1050 461 1050 q 341 1081 372 1050 q 310 1157 310 1113 q 341 1232 310 1201 q 417 1263 372 1263 m 81 1263 q 156 1232 125 1263 q 186 1157 186 1201 q 156 1081 186 1113 q 81 1050 125 1050 q 5 1081 36 1050 q -26 1157 -26 1113 q 5 1232 -26 1201 q 81 1263 36 1263 z "},"Ì":{"ha":488,"x_min":65,"x_max":424,"o":"m 424 985 l 424 807 l 350 807 l 350 176 l 424 176 l 424 0 l 65 0 l 65 176 l 139 176 l 139 807 l 65 807 l 65 985 l 424 985 m 299 1299 l 318 1050 l 176 1050 l 89 1299 l 299 1299 z "},"Ó":{"ha":1063,"x_min":46,"x_max":1017,"o":"m 531 999 q 719 958 631 999 q 874 849 808 918 q 978 688 940 779 q 1017 492 1017 596 q 978 296 1017 389 q 874 133 940 203 q 719 23 808 64 q 531 -18 631 -18 q 342 23 431 -18 q 188 133 253 64 q 84 296 122 203 q 46 492 46 389 q 84 688 46 596 q 188 849 122 779 q 342 958 253 918 q 531 999 431 999 m 531 192 q 638 215 588 192 q 725 280 688 239 q 784 375 763 321 q 806 492 806 429 q 784 609 806 554 q 725 705 763 664 q 638 769 688 746 q 531 793 588 793 q 424 769 474 793 q 336 705 374 746 q 277 609 299 664 q 256 492 256 554 q 277 375 256 429 q 336 280 299 321 q 424 215 374 239 q 531 192 474 192 m 646 1299 l 558 1050 l 417 1050 l 436 1299 l 646 1299 z "},"Ô":{"ha":1063,"x_min":46,"x_max":1017,"o":"m 531 999 q 719 958 631 999 q 874 849 808 918 q 978 688 940 779 q 1017 492 1017 596 q 978 296 1017 389 q 874 133 940 203 q 719 23 808 64 q 531 -18 631 -18 q 342 23 431 -18 q 188 133 253 64 q 84 296 122 203 q 46 492 46 389 q 84 688 46 596 q 188 849 122 779 q 342 958 253 918 q 531 999 431 999 m 531 192 q 638 215 588 192 q 725 280 688 239 q 784 375 763 321 q 806 492 806 429 q 784 609 806 554 q 725 705 763 664 q 638 769 688 746 q 531 793 588 793 q 424 769 474 793 q 336 705 374 746 q 277 609 299 664 q 256 492 256 554 q 277 375 256 429 q 336 280 299 321 q 424 215 374 239 q 531 192 474 192 m 444 1050 l 276 1050 l 444 1238 l 626 1238 l 788 1050 l 618 1050 l 535 1172 l 444 1050 z "},"Ÿ":{"ha":963,"x_min":25,"x_max":938,"o":"m 683 985 l 938 985 l 586 461 l 586 0 l 376 0 l 376 461 l 25 985 l 279 985 l 482 682 l 683 985 m 651 1263 q 726 1232 696 1263 q 757 1157 757 1201 q 726 1081 757 1113 q 651 1050 696 1050 q 576 1081 607 1050 q 544 1157 544 1113 q 576 1232 544 1201 q 651 1263 607 1263 m 315 1263 q 390 1232 360 1263 q 421 1157 421 1201 q 390 1081 421 1113 q 315 1050 360 1050 q 240 1081 271 1050 q 208 1157 208 1113 q 240 1232 208 1201 q 315 1263 271 1263 z "},"ÿ":{"ha":821,"x_min":39,"x_max":804,"o":"m 594 689 l 804 689 l 369 -275 l 160 -275 l 331 104 l 39 689 l 253 689 l 432 329 l 594 689 m 592 985 q 667 954 636 985 q 697 879 697 924 q 667 803 697 835 q 592 772 636 772 q 516 803 547 772 q 485 879 485 835 q 516 954 485 924 q 592 985 547 985 m 256 985 q 331 954 300 985 q 361 879 361 924 q 331 803 361 835 q 256 772 300 772 q 180 803 211 772 q 149 879 149 835 q 180 954 149 924 q 256 985 211 985 z "},"Ù":{"ha":889,"x_min":58,"x_max":832,"o":"m 622 985 l 832 985 l 832 356 q 801 214 832 282 q 718 94 771 146 q 595 13 665 43 q 444 -18 525 -18 q 294 13 365 -18 q 172 94 224 43 q 89 214 119 146 q 58 356 58 282 l 58 985 l 268 985 l 268 397 q 282 319 268 356 q 319 253 296 282 q 376 208 343 225 q 444 192 408 192 q 514 208 482 192 q 570 253 546 225 q 608 319 594 282 q 622 397 622 356 l 622 985 m 539 1299 l 558 1050 l 417 1050 l 329 1299 l 539 1299 z "},"Û":{"ha":889,"x_min":58,"x_max":832,"o":"m 622 985 l 832 985 l 832 356 q 801 214 832 282 q 718 94 771 146 q 595 13 665 43 q 444 -18 525 -18 q 294 13 365 -18 q 172 94 224 43 q 89 214 119 146 q 58 356 58 282 l 58 985 l 268 985 l 268 397 q 282 319 268 356 q 319 253 296 282 q 376 208 343 225 q 444 192 408 192 q 514 208 482 192 q 570 253 546 225 q 608 319 594 282 q 622 397 622 356 l 622 985 m 357 1050 l 189 1050 l 357 1238 l 539 1238 l 700 1050 l 531 1050 l 447 1172 l 357 1050 z "},"Ú":{"ha":889,"x_min":58,"x_max":832,"o":"m 622 985 l 832 985 l 832 356 q 801 214 832 282 q 718 94 771 146 q 595 13 665 43 q 444 -18 525 -18 q 294 13 365 -18 q 172 94 224 43 q 89 214 119 146 q 58 356 58 282 l 58 985 l 268 985 l 268 397 q 282 319 268 356 q 319 253 296 282 q 376 208 343 225 q 444 192 408 192 q 514 208 482 192 q 570 253 546 225 q 608 319 594 282 q 622 397 622 356 l 622 985 m 558 1299 l 471 1050 l 329 1050 l 349 1299 l 558 1299 z "},"Ò":{"ha":1063,"x_min":46,"x_max":1017,"o":"m 531 999 q 719 958 631 999 q 874 849 808 918 q 978 688 940 779 q 1017 492 1017 596 q 978 296 1017 389 q 874 133 940 203 q 719 23 808 64 q 531 -18 631 -18 q 342 23 431 -18 q 188 133 253 64 q 84 296 122 203 q 46 492 46 389 q 84 688 46 596 q 188 849 122 779 q 342 958 253 918 q 531 999 431 999 m 531 192 q 638 215 588 192 q 725 280 688 239 q 784 375 763 321 q 806 492 806 429 q 784 609 806 554 q 725 705 763 664 q 638 769 688 746 q 531 793 588 793 q 424 769 474 793 q 336 705 374 746 q 277 609 299 664 q 256 492 256 554 q 277 375 256 429 q 336 280 299 321 q 424 215 374 239 q 531 192 474 192 m 626 1299 l 646 1050 l 504 1050 l 417 1299 l 626 1299 z "},"ﬆ":{"ha":1124,"x_min":35,"x_max":1082,"o":"m 896 254 q 926 179 896 206 q 1004 153 956 153 q 1082 168 1043 153 l 1082 7 q 1008 -12 1047 -4 q 931 -19 969 -19 q 846 -8 886 -19 q 774 30 806 3 q 723 102 742 57 q 704 214 704 147 l 704 518 l 606 518 l 606 647 l 704 689 l 704 746 q 678 835 704 797 q 606 874 653 874 q 517 835 547 874 q 486 743 486 796 q 491 691 486 718 q 502 639 496 664 q 516 592 508 614 q 529 553 524 569 l 535 538 l 386 488 q 352 528 378 513 q 297 543 326 543 q 250 524 268 543 q 232 485 232 504 q 240 459 232 469 q 258 441 247 449 q 283 430 269 433 q 308 426 297 426 q 509 348 450 401 q 568 207 568 294 q 547 121 568 161 q 488 50 525 81 q 400 2 450 19 q 293 -15 350 -15 q 209 -4 250 -15 q 133 26 168 7 q 73 73 99 46 q 35 133 47 100 q 106 167 67 149 q 174 201 144 186 q 213 163 186 181 q 285 146 239 146 q 354 168 332 146 q 376 210 376 190 q 365 231 376 222 q 337 248 353 240 q 305 260 321 256 q 279 265 289 264 q 146 309 193 281 q 76 369 99 338 q 49 429 53 400 q 44 478 44 458 q 63 565 44 524 q 115 637 82 606 q 194 687 149 668 q 293 706 240 706 l 300 706 q 299 720 299 713 q 299 736 299 728 q 314 846 299 789 q 365 950 329 903 q 459 1028 400 997 q 606 1058 518 1058 q 735 1034 681 1058 q 826 967 790 1010 q 878 867 861 924 q 896 746 896 810 l 896 689 l 1082 689 l 1082 518 l 896 518 l 896 254 l 896 254 z "},"æ":{"ha":1246,"x_min":57,"x_max":1197,"o":"m 850 714 q 992 683 928 714 q 1101 601 1056 651 q 1172 484 1147 550 q 1197 349 1197 418 q 1186 260 1197 307 l 694 260 q 774 180 722 213 q 885 147 825 147 q 990 157 944 147 q 1075 182 1035 167 l 1139 64 q 1022 8 1088 28 q 881 -11 956 -11 q 721 20 794 -11 q 594 104 647 51 q 528 44 558 67 q 469 11 499 22 q 405 -4 439 0 q 329 -10 371 -8 q 229 -3 275 -11 q 148 26 183 6 q 90 80 113 46 q 63 164 68 114 q 73 256 57 214 q 120 330 89 299 q 195 381 151 361 q 290 407 239 401 l 357 414 q 431 424 404 418 q 472 437 458 429 q 490 453 486 444 q 493 474 493 463 q 462 533 493 511 q 368 554 431 554 q 285 534 319 554 q 210 471 250 514 l 82 549 q 226 677 150 640 q 389 714 301 714 q 442 710 413 714 q 503 695 472 706 q 563 669 533 685 q 617 628 592 653 q 724 691 664 668 q 850 714 783 714 m 1007 408 q 947 506 990 468 q 850 543 904 543 q 749 506 794 543 q 688 408 704 468 l 1007 408 m 494 296 q 439 289 467 293 q 388 283 415 286 q 338 278 361 281 q 267 245 286 271 q 251 199 249 219 q 281 153 256 171 q 351 139 306 136 q 394 147 369 140 q 440 167 418 153 q 478 204 463 182 q 494 260 494 226 l 494 296 z "},"†":{"ha":539,"x_min":10,"x_max":529,"o":"m 529 578 l 333 578 l 333 -222 l 203 -222 l 203 578 l 10 578 l 10 708 l 203 708 l 203 1050 l 333 1050 l 333 708 l 529 708 l 529 578 z "},"‡":{"ha":615,"x_min":13,"x_max":604,"o":"m 13 689 l 242 689 l 242 1050 l 372 1050 l 372 689 l 604 689 l 604 557 l 372 557 l 372 283 l 604 283 l 604 151 l 372 151 l 372 -265 l 242 -265 l 242 151 l 13 151 l 13 283 l 242 283 l 242 557 l 13 557 l 13 689 z "},"œ":{"ha":1333,"x_min":50,"x_max":1283,"o":"m 936 708 q 1078 677 1014 708 q 1188 595 1142 646 q 1258 478 1233 544 q 1283 343 1283 413 q 1272 254 1283 301 l 781 254 q 860 174 808 207 q 971 142 911 142 q 1076 151 1031 142 q 1161 176 1121 161 l 1225 58 q 1108 3 1174 22 q 967 -17 1042 -17 q 804 15 879 -17 q 675 103 729 47 q 558 15 626 47 q 410 -17 489 -17 q 269 12 335 -17 q 156 90 204 40 q 78 205 107 139 q 50 346 50 271 q 78 487 50 421 q 156 602 107 553 q 269 680 204 651 q 410 708 335 708 q 556 677 488 708 q 672 592 624 646 q 789 677 721 646 q 936 708 857 708 m 410 151 q 473 165 443 151 q 526 201 503 178 q 562 258 549 225 q 576 331 575 290 l 576 338 q 563 415 576 379 q 527 478 550 451 q 474 522 504 506 q 410 538 444 538 q 344 522 375 538 q 291 478 314 506 q 255 415 268 451 q 242 338 242 379 q 255 262 242 296 q 291 203 268 228 q 344 165 314 179 q 410 151 375 151 m 1093 403 q 1033 500 1076 463 q 936 538 990 538 q 835 500 881 538 q 774 403 790 463 l 1093 403 z "},"Œ":{"ha":1396,"x_min":47,"x_max":1340,"o":"m 725 25 q 532 -18 632 -18 q 343 23 432 -18 q 189 133 254 64 q 85 296 124 203 q 47 492 47 389 q 85 688 47 596 q 189 849 124 779 q 343 958 254 918 q 532 999 432 999 q 725 956 632 999 l 725 985 l 1340 985 l 1340 793 l 936 793 l 936 615 l 1292 615 l 1292 424 l 936 424 l 936 190 l 1340 190 l 1340 0 l 725 0 l 725 25 m 532 192 q 638 215 589 192 q 725 278 688 238 l 725 707 q 638 770 688 747 q 532 793 589 793 q 425 769 475 793 q 338 705 375 746 q 278 609 300 664 q 257 492 257 554 q 278 375 257 429 q 338 280 300 321 q 425 215 375 239 q 532 192 475 192 z "},"¥":{"ha":963,"x_min":25,"x_max":938,"o":"m 185 553 l 315 553 l 25 985 l 279 985 l 482 682 l 683 985 l 938 985 l 647 553 l 776 553 l 776 463 l 586 463 l 586 461 l 586 365 l 776 365 l 776 275 l 586 275 l 586 0 l 376 0 l 376 275 l 185 275 l 185 365 l 376 365 l 376 461 l 375 463 l 185 463 l 185 553 z "},"§":{"ha":796,"x_min":44,"x_max":751,"o":"m 640 593 q 722 510 693 561 q 751 393 751 460 q 724 280 751 332 q 643 186 696 228 q 724 104 696 154 q 751 -10 751 54 q 722 -126 751 -72 q 638 -222 692 -179 q 392 -301 535 -299 q 258 -282 322 -301 q 146 -224 194 -262 q 44 -87 71 -167 l 226 -4 q 235 -36 226 -17 q 264 -74 244 -56 q 315 -105 283 -92 q 390 -118 346 -118 q 502 -87 464 -118 q 540 -19 540 -56 q 526 19 540 1 q 485 49 513 38 q 375 79 433 67 q 262 110 317 92 q 161 160 207 129 q 88 247 115 190 q 63 351 63 297 q 89 467 63 411 q 161 563 115 522 q 120 601 139 579 q 88 650 101 622 q 63 756 63 700 q 92 876 63 818 q 171 974 121 933 q 279 1032 219 1011 q 406 1053 339 1053 q 532 1033 472 1053 q 640 975 592 1013 q 714 894 686 942 l 565 793 q 497 853 538 829 q 407 876 457 876 q 298 845 336 876 q 260 763 260 814 q 281 721 260 739 q 337 689 303 703 q 414 664 371 675 q 499 642 457 653 q 579 619 542 631 q 640 593 617 607 m 417 472 l 407 472 q 298 441 336 472 q 260 360 260 410 q 274 324 260 340 q 314 296 289 308 q 348 289 329 292 q 390 286 367 286 q 502 317 464 286 q 540 385 540 349 q 526 423 540 404 q 485 451 513 442 l 417 472 z "},"÷":{"ha":725,"x_min":14,"x_max":713,"o":"m 713 390 l 713 260 l 14 260 l 14 390 l 713 390 m 356 200 q 431 169 400 200 q 463 94 463 139 q 431 19 463 50 q 356 -11 400 -11 q 281 19 311 -11 q 250 94 250 50 q 281 169 250 139 q 356 200 311 200 m 360 657 q 435 626 404 657 q 465 551 465 596 q 435 476 465 507 q 360 444 404 444 q 284 476 315 444 q 253 551 253 507 q 284 626 253 596 q 360 657 315 657 z "},"±":{"ha":740,"x_min":33,"x_max":707,"o":"m 704 532 l 704 401 l 435 401 l 435 186 l 303 186 l 303 401 l 33 401 l 33 532 l 303 532 l 303 747 l 435 747 l 435 532 l 704 532 m 707 131 l 707 0 l 36 0 l 36 131 l 707 131 z "},"≤":{"ha":724,"x_min":50,"x_max":629,"o":"m 629 118 l 75 392 l 75 524 l 629 797 l 629 665 l 208 457 l 629 250 l 629 118 m 629 117 l 629 0 l 50 0 l 50 117 l 629 117 z "},"≥":{"ha":724,"x_min":94,"x_max":674,"o":"m 94 250 l 515 457 l 94 665 l 94 797 l 649 524 l 649 392 l 94 118 l 94 250 m 674 117 l 674 0 l 94 0 l 94 117 l 674 117 z "},"…":{"ha":963,"x_min":57,"x_max":906,"o":"m 163 200 q 238 169 207 200 q 269 94 269 139 q 238 19 269 50 q 163 -11 207 -11 q 88 19 118 -11 q 57 94 57 50 q 88 169 57 139 q 163 200 118 200 m 481 200 q 556 169 525 200 q 588 94 588 139 q 556 19 588 50 q 481 -11 525 -11 q 406 19 436 -11 q 375 94 375 50 q 406 169 375 139 q 481 200 436 200 m 799 200 q 874 169 843 200 q 906 94 906 139 q 874 19 906 50 q 799 -11 843 -11 q 724 19 754 -11 q 693 94 693 50 q 724 169 693 139 q 799 200 754 200 z "},"≈":{"ha":825,"x_min":38,"x_max":788,"o":"m 550 269 q 605 276 579 269 q 651 294 631 283 q 686 315 672 304 q 707 335 700 326 l 788 263 q 763 238 783 258 q 710 196 743 218 q 635 156 678 174 q 544 139 593 139 q 462 155 494 139 q 402 190 429 171 q 349 224 375 208 q 286 240 322 240 q 225 231 253 240 q 176 209 197 221 q 144 188 156 197 q 131 176 132 178 l 38 231 q 54 255 39 232 q 100 303 69 278 q 177 351 131 329 q 286 372 224 372 q 381 356 342 372 q 451 321 421 340 q 503 285 481 301 q 550 269 526 269 m 550 556 q 605 563 579 556 q 651 580 631 569 q 686 601 672 590 q 707 621 700 613 l 788 549 q 763 524 783 544 q 710 482 743 504 q 635 442 678 460 q 544 425 593 425 q 462 441 494 425 q 402 476 429 457 q 349 510 375 494 q 286 526 322 526 q 225 517 253 526 q 176 495 197 507 q 144 474 156 483 q 131 463 132 464 l 38 517 q 54 541 39 518 q 100 590 69 564 q 177 637 131 615 q 286 658 224 658 q 381 642 342 658 q 451 607 421 626 q 503 572 481 588 q 550 556 526 556 z "},"‚":{"ha":331,"x_min":46,"x_max":307,"o":"m 92 176 l 307 176 l 193 -200 l 46 -200 l 92 176 z "},"„":{"ha":681,"x_min":54,"x_max":638,"o":"m 100 176 l 315 176 l 201 -200 l 54 -200 l 100 176 m 422 176 l 638 176 l 524 -200 l 376 -200 l 422 176 z "},"·":{"ha":311,"x_min":54,"x_max":283,"o":"m 283 689 l 196 440 l 54 440 l 74 689 l 283 689 z "},"ƒ":{"ha":781,"x_min":21,"x_max":760,"o":"m 126 -67 q 190 -87 163 -67 q 228 -140 218 -108 q 281 -108 264 -133 q 297 -43 297 -83 l 297 518 l 207 518 l 207 619 l 297 689 l 297 789 q 319 913 297 861 q 376 999 340 965 q 460 1049 413 1033 q 560 1065 507 1065 q 625 1060 590 1065 q 690 1042 660 1056 q 740 1004 719 1028 q 760 943 760 981 q 728 868 760 899 q 653 838 697 838 q 590 857 617 838 q 553 908 564 876 q 488 813 488 893 l 488 689 l 672 689 l 672 518 l 488 518 l 488 -19 q 466 -144 488 -92 q 408 -230 444 -196 q 325 -280 372 -264 q 225 -296 278 -296 q 158 -290 194 -296 q 92 -272 122 -285 q 41 -234 61 -258 q 21 -172 21 -210 q 51 -97 21 -128 q 126 -67 82 -67 z "},"–":{"ha":1008,"x_min":63,"x_max":946,"o":"m 946 417 l 946 286 l 63 286 l 63 417 l 946 417 z "},"—":{"ha":1186,"x_min":63,"x_max":1124,"o":"m 1124 417 l 1124 286 l 63 286 l 63 417 l 1124 417 z "},"»":{"ha":685,"x_min":44,"x_max":661,"o":"m 50 563 l 50 739 l 332 483 l 332 351 l 44 104 l 44 283 q 134 351 89 318 q 224 418 179 385 l 50 563 m 331 625 l 331 803 l 661 483 l 661 354 l 331 50 l 331 229 q 405 290 367 258 q 481 354 443 322 l 556 418 l 331 625 z "},"«":{"ha":685,"x_min":24,"x_max":640,"o":"m 461 418 q 551 351 506 385 q 640 283 596 318 l 640 104 l 353 351 l 353 483 l 635 739 l 635 563 l 461 418 m 129 418 l 204 354 q 280 290 242 322 q 354 229 318 258 l 354 50 l 24 354 l 24 483 l 354 803 l 354 625 l 129 418 z "},"ø":{"ha":796,"x_min":38,"x_max":756,"o":"m 706 708 l 643 608 q 726 492 696 560 q 756 346 756 424 q 727 205 756 271 q 650 90 699 139 q 536 12 601 40 q 397 -17 471 -17 q 267 7 329 -17 l 218 -69 l 107 0 l 156 76 q 69 196 100 126 q 38 346 38 265 q 66 487 38 421 q 143 602 94 553 q 257 680 192 651 q 397 708 322 708 q 535 681 471 708 l 596 776 l 706 708 m 229 338 q 254 235 229 276 l 440 531 q 397 538 417 538 q 332 522 363 538 q 278 478 301 506 q 242 415 256 451 q 229 338 229 379 m 397 151 q 462 165 432 151 q 515 203 492 179 q 551 262 538 228 q 564 338 564 296 q 557 392 564 367 q 539 442 550 418 l 360 156 q 397 151 376 151 z "},"Ø":{"ha":1054,"x_min":42,"x_max":1013,"o":"m 897 965 l 842 876 q 967 706 921 806 q 1013 492 1013 606 q 974 296 1013 389 q 870 133 936 203 q 715 23 804 64 q 526 -18 626 -18 q 417 -5 469 -18 q 317 32 365 8 l 268 -47 l 157 22 l 210 107 q 87 278 132 178 q 42 492 42 378 q 80 688 42 596 q 183 849 118 779 q 338 958 249 918 q 526 999 426 999 q 634 985 582 999 q 735 949 686 972 l 788 1033 l 897 965 m 251 492 q 271 381 251 433 q 324 289 290 329 l 625 772 q 577 788 601 782 q 526 793 553 793 q 419 769 469 793 q 332 705 369 746 q 273 609 294 664 q 251 492 251 554 m 526 192 q 633 215 583 192 q 721 280 683 239 q 780 375 758 321 q 801 492 801 429 q 782 602 801 550 q 729 694 763 654 l 428 211 q 526 192 475 192 z "}}}
